<svg id="Layer_1" data-name="Layer 1" xmlns="http://www.w3.org/2000/svg" viewBox="0 0 311.68 248.27"><defs><style>.cls-1{fill:red;}.cls-2,.cls-3{font-size:54px;font-family:ClassicComic-BoldItalic, Classic Comic;font-weight:700;font-style:italic;}.cls-2{stroke:#000;stroke-miterlimit:10;stroke-width:4px;}.cls-3{fill:#ff0;}</style></defs><polygon points="137.51 209.21 139.16 248.27 141.25 210.04 137.51 209.21"/><polygon points="132.78 209.72 132.21 236.01 129.91 209.62 132.78 209.72"/><polygon points="37.09 150.57 0 153.99 36.47 154.45 37.09 150.57"/><polygon points="38.12 148.29 13.61 143.01 38.74 145.42 38.12 148.29"/><polygon points="234.69 82.59 265.22 60.69 233.35 78.91 234.69 82.59"/><polygon points="234.9 85.09 258.72 77.17 235.75 87.91 234.9 85.09"/><path d="M167,126.87c5.28,1.75,5.77,7.08,1.3,9.9,2.71.51,4.41,2.11,4.57,4.32a4.86,4.86,0,0,1-3.34,5.08c-2.11.71-4.2-.34-5.79-3-.38,2.63-1.56,4.48-4.13,5-1.93.37-3.35-.43-5.21-2.76-1.16,3.25-2.67,4.63-5,4.53a5.09,5.09,0,0,1-4.64-3.72c-.49-1.79.63-4.11,2.78-5.59a5.73,5.73,0,0,1-4.34-3.29c-.48,2.81-1.93,4.58-4.37,4.72s-4.07-1-4.91-3.48c-.73-2.1.25-4.21,2.73-6l-1.12-.36a4.63,4.63,0,0,1-3.43-3.92,4.71,4.71,0,0,1,2.24-4.9l1.06-.69c-3-.3-4.77-2-4.91-4.39a4.68,4.68,0,0,1,3.43-5c2.25-.64,4.39.56,5.57,3.24.11-.52.19-1,.3-1.39a4.7,4.7,0,0,1,3.45-3.7,4.48,4.48,0,0,1,4.86,1.66c.22.27.42.54.74.95.17-.44.31-.79.43-1.14a4.65,4.65,0,0,1,4-3.34,4.61,4.61,0,0,1,4.53,2.16l.67,1a5.48,5.48,0,0,1,1.35-3.33A4.49,4.49,0,0,1,163,108a4.72,4.72,0,0,1,4.77,3.68c.54,2.15-.54,4.28-2.94,5.61l1.18.35a4.7,4.7,0,0,1,3.51,3.64,4.8,4.8,0,0,1-1.7,5Zm-30.78-4.35c2.2.27,3.9,1,4.82,2.94a14.93,14.93,0,0,1,1-2.42,15.91,15.91,0,0,1,1.82-2c-2.06-.33-3.25-1.66-4.19-3.52A4.87,4.87,0,0,1,136.24,122.52ZM163.61,142a5.08,5.08,0,0,1,3.26-5,5.7,5.7,0,0,1-4.64-3,6.41,6.41,0,0,1-3,4.43C161.34,138.77,162.57,140,163.61,142Zm-7.7-23.11a6.31,6.31,0,0,1,4.09,2.76,15.54,15.54,0,0,1,1.2-2.3,15,15,0,0,1,2-1.82,4.82,4.82,0,0,1-4.36-3.19C158.41,116.21,157.8,117.81,155.91,118.88ZM138.7,132.15a5.61,5.61,0,0,1,4.21,3.28,6.5,6.5,0,0,1,2.56-4.59,5.84,5.84,0,0,1-3.94-3A5.64,5.64,0,0,1,138.7,132.15Zm15.44,11.35a5.52,5.52,0,0,1,2.74-4.65,6.67,6.67,0,0,1-4.16-2.69,6.11,6.11,0,0,1-3,4.06C151.78,140.39,153,141.52,154.14,143.5Zm-4.89-27.06a5.4,5.4,0,0,1-2.61,4.14,15.42,15.42,0,0,1,2.07.94,14.22,14.22,0,0,1,1.65,1.45L153,119.3C151.24,118.73,151,118.54,149.25,116.44Zm15.49,10.9a5.37,5.37,0,0,1-4-2.47l-2.52,3.91c1.55.23,2.52,1.41,3.57,2.67A5.78,5.78,0,0,1,164.74,127.34Zm-10.38,1.95L151,126.85a5.85,5.85,0,0,1-2.14,3.34l3.35,2.39Z"/><path d="M139.39,142.19a4.44,4.44,0,0,1,5.23,3.75,4.54,4.54,0,0,1-3.76,5.44,4.45,4.45,0,0,1-5.16-3.85A4.53,4.53,0,0,1,139.39,142.19Z"/><path d="M156.52,103.62A4.5,4.5,0,0,1,153,109a4.4,4.4,0,0,1-5.28-3.65,4.5,4.5,0,0,1,3.56-5.42A4.39,4.39,0,0,1,156.52,103.62Z"/><path d="M142,101.69a4.39,4.39,0,0,1,5.17,3.78,4.47,4.47,0,0,1-3.68,5.3,4.39,4.39,0,0,1-5.17-3.77A4.49,4.49,0,0,1,142,101.69Z"/><path d="M175.47,125.11a4.41,4.41,0,0,1-5.3-3.65,4.51,4.51,0,0,1,3.55-5.44,4.41,4.41,0,0,1,5.3,3.65A4.51,4.51,0,0,1,175.47,125.11Z"/><path d="M180.7,129.34a4.5,4.5,0,0,1-3.6,5.38,4.38,4.38,0,0,1-5.24-3.69,4.49,4.49,0,0,1,3.59-5.38A4.39,4.39,0,0,1,180.7,129.34Z"/><path d="M161.34,157.81a4.4,4.4,0,0,1-5.12-3.85,4.48,4.48,0,0,1,3.8-5.22,4.39,4.39,0,0,1,5,3.78A4.48,4.48,0,0,1,161.34,157.81Z"/><path d="M177.09,135.34a4.4,4.4,0,0,1,5.21,3.53,4.51,4.51,0,0,1-3.56,5.41,4.41,4.41,0,0,1-5.14-3.63A4.51,4.51,0,0,1,177.09,135.34Z"/><path d="M131.49,128.54a4.51,4.51,0,0,1-3.7,5.31,4.41,4.41,0,0,1-5.07-3.73,4.5,4.5,0,0,1,3.7-5.31A4.41,4.41,0,0,1,131.49,128.54Z"/><path d="M162.19,107.28a4.43,4.43,0,0,1-5.12-3.85,4.52,4.52,0,0,1,3.68-5.16,4.43,4.43,0,0,1,5.12,3.85A4.51,4.51,0,0,1,162.19,107.28Z"/><path d="M137.73,107.14a4.52,4.52,0,0,1-3.56,5.29,4.41,4.41,0,0,1-5.14-3.66,4.51,4.51,0,0,1,3.56-5.28A4.41,4.41,0,0,1,137.73,107.14Z"/><path d="M133.17,138.16a4.5,4.5,0,0,1-3.7,5.3,4.39,4.39,0,0,1-5.06-3.72,4.5,4.5,0,0,1,3.69-5.31A4.42,4.42,0,0,1,133.17,138.16Z"/><path d="M124.57,115.26a4.42,4.42,0,0,1,5.18,3.58,4.53,4.53,0,0,1-3.48,5.32,4.42,4.42,0,0,1-5.18-3.58A4.53,4.53,0,0,1,124.57,115.26Z"/><path d="M177.29,110.14a4.5,4.5,0,0,1-3.67,5.32,4.41,4.41,0,0,1-5.09-3.7,4.5,4.5,0,0,1,3.68-5.32A4.39,4.39,0,0,1,177.29,110.14Z"/><path d="M169.16,147.09a4.42,4.42,0,0,1,5.18,3.6,4.5,4.5,0,0,1-3.5,5.32,4.4,4.4,0,0,1-5.18-3.59A4.53,4.53,0,0,1,169.16,147.09Z"/><path d="M152.14,159.49a4.4,4.4,0,0,1-5.25-3.68,4.5,4.5,0,0,1,3.52-5.28,4.4,4.4,0,0,1,5.25,3.68A4.5,4.5,0,0,1,152.14,159.49Z"/><path d="M146.25,156a4.55,4.55,0,0,1-3.64,5.22,4.46,4.46,0,0,1-5.05-3.79,4.54,4.54,0,0,1,3.57-5.12A4.44,4.44,0,0,1,146.25,156Z"/><path d="M134.8,147.78a4.54,4.54,0,0,1-3.61,5.24,4.46,4.46,0,0,1-5.07-3.75,4.55,4.55,0,0,1,3.54-5.14A4.43,4.43,0,0,1,134.8,147.78Z"/><path d="M154.7,94.12a4.58,4.58,0,0,1-3.53,5.16,4.48,4.48,0,0,1-5-3.63,4.58,4.58,0,0,1,3.53-5.16A4.48,4.48,0,0,1,154.7,94.12Z"/><path d="M170.4,96.59a4.5,4.5,0,0,1,5,3.61,4.59,4.59,0,0,1-3.51,5.18,4.5,4.5,0,0,1-5.05-3.61A4.59,4.59,0,0,1,170.4,96.59Z"/><path d="M145.33,95.87a4.56,4.56,0,0,1-3.55,5.13,4.47,4.47,0,0,1-5-3.64,4.58,4.58,0,0,1,3.55-5.14A4.48,4.48,0,0,1,145.33,95.87Z"/><path d="M184,149.05a4.33,4.33,0,1,1-8.55,1.34,4.56,4.56,0,0,1,3.55-5A4.46,4.46,0,0,1,184,149.05Z"/><path d="M188.25,118.1a4.6,4.6,0,0,1-3.58,5.15,4.51,4.51,0,0,1-5-3.68,4.6,4.6,0,0,1,3.58-5.14A4.5,4.5,0,0,1,188.25,118.1Z"/><path d="M189.93,127.69a4.6,4.6,0,0,1-3.55,5.17,4.48,4.48,0,0,1-5-3.64,4.59,4.59,0,0,1,3.54-5.17A4.51,4.51,0,0,1,189.93,127.69Z"/><path d="M181.46,104.9a4.37,4.37,0,0,1,5,3.39,4.48,4.48,0,0,1-3.36,5.25,4.36,4.36,0,0,1-5-3.57A4.46,4.46,0,0,1,181.46,104.9Z"/><path d="M119.44,110.39a4.45,4.45,0,0,1,3.7-5,4.37,4.37,0,0,1,4.78,3.71,4.44,4.44,0,0,1-3.7,5A4.36,4.36,0,0,1,119.44,110.39Z"/><path d="M166.53,162.08a4.48,4.48,0,0,1-3.33,5.13,4.37,4.37,0,0,1-5.09-3.49,4.48,4.48,0,0,1,3.33-5.12A4.36,4.36,0,0,1,166.53,162.08Z"/><path d="M157.14,163.78a4.45,4.45,0,0,1-3.27,5.13,4.33,4.33,0,0,1-5.1-3.43,4.43,4.43,0,0,1,3.44-5.16A4.32,4.32,0,0,1,157.14,163.78Z"/><path d="M159,88.85A4.33,4.33,0,0,1,164,92.28a4.45,4.45,0,0,1-3.41,5.19,4.34,4.34,0,0,1-5-3.61A4.43,4.43,0,0,1,159,88.85Z"/><path d="M116.94,126.75a4.35,4.35,0,0,1,5,3.4,4.46,4.46,0,0,1-3.38,5.21,4.33,4.33,0,0,1-5-3.4A4.44,4.44,0,0,1,116.94,126.75Z"/><path d="M130.9,94.13a4.06,4.06,0,0,1,4.9,3.39,4.16,4.16,0,0,1-3.31,5,4.05,4.05,0,0,1-4.89-3.39A4.15,4.15,0,0,1,130.9,94.13Z"/><path d="M188.06,142.32a4.08,4.08,0,0,1-4.86-3.44,4.2,4.2,0,0,1,3.47-5.07,4.1,4.1,0,0,1,4.79,3.55A4.17,4.17,0,0,1,188.06,142.32Z"/><path d="M132.87,162.78a4.08,4.08,0,0,1-4.79-3.53,4.17,4.17,0,0,1,3.56-5,4.1,4.1,0,0,1,4.72,3.63A4.18,4.18,0,0,1,132.87,162.78Z"/><path d="M123.54,139.86a4.19,4.19,0,0,1-3.28,5,4.09,4.09,0,0,1-5-3.49,4.17,4.17,0,0,1,3.38-5A4.07,4.07,0,0,1,123.54,139.86Z"/><path d="M175.79,160.44a4.14,4.14,0,0,1-3.39,4.95,4,4,0,0,1-4.82-3.48A4.14,4.14,0,0,1,171,157,4,4,0,0,1,175.79,160.44Z"/><path d="M179.76,95.11a4,4,0,0,1,4.83,3.43,4.13,4.13,0,0,1-3.28,4.86,4,4,0,0,1-4.83-3.43A4.13,4.13,0,0,1,179.76,95.11Z"/><path d="M170.18,95.52a4,4,0,0,1-4.73-3.4,4.13,4.13,0,0,1,3.43-4.93,4,4,0,0,1,4.66,3.51A4.11,4.11,0,0,1,170.18,95.52Z"/><path d="M189.74,152.19a4.05,4.05,0,0,1-4.71-3.42,4.15,4.15,0,0,1,3.45-4.9,4.05,4.05,0,0,1,4.63,3.52A4.14,4.14,0,0,1,189.74,152.19Z"/><path d="M115.25,117.26a4,4,0,0,1,4.88,3.39,4.14,4.14,0,0,1-3.35,5,4,4,0,0,1-4.78-3.32A4.16,4.16,0,0,1,115.25,117.26Z"/><path d="M144.3,170.55a4.06,4.06,0,0,1-4.8-3.51,4.15,4.15,0,0,1,3.47-4.89,4.06,4.06,0,0,1,4.7,3.44A4.15,4.15,0,0,1,144.3,170.55Z"/><path d="M125.16,149.49a4.13,4.13,0,0,1-3.32,5A4,4,0,0,1,117,151a4.14,4.14,0,0,1,3.25-4.88A4,4,0,0,1,125.16,149.49Z"/><path d="M197.33,116.3a4.2,4.2,0,0,1-3.22,4.92,4.09,4.09,0,0,1-4.79-3.3,4.19,4.19,0,0,1,3.21-4.92A4.09,4.09,0,0,1,197.33,116.3Z"/><path d="M182.09,163.52a4.08,4.08,0,0,1-4.73-3.41,4.16,4.16,0,0,1,3.32-4.86,4.08,4.08,0,0,1,4.73,3.41A4.18,4.18,0,0,1,182.09,163.52Z"/><path d="M126,99.35a4.2,4.2,0,0,1-3.25,4.9,4.1,4.1,0,0,1-4.77-3.34,4.19,4.19,0,0,1,3.24-4.9A4.1,4.1,0,0,1,126,99.35Z"/><path d="M134.6,172.25a4.13,4.13,0,0,1-4.72-3.47,4.22,4.22,0,0,1,3.31-4.74,4.13,4.13,0,0,1,4.72,3.47A4.22,4.22,0,0,1,134.6,172.25Z"/><path d="M199,125.93a4.22,4.22,0,0,1-3.27,4.92,4.12,4.12,0,0,1-4.75-3.41,4.2,4.2,0,0,1,3.2-4.81A4.11,4.11,0,0,1,199,125.93Z"/><path d="M192.35,111.59a4.13,4.13,0,0,1-4.71-3.45,4.22,4.22,0,0,1,3.29-4.74,4.13,4.13,0,0,1,4.71,3.45A4.24,4.24,0,0,1,192.35,111.59Z"/><path d="M123.55,164.36a4.13,4.13,0,0,1-4.72-3.46,4.22,4.22,0,0,1,3.31-4.75,4.13,4.13,0,0,1,4.72,3.47A4.21,4.21,0,0,1,123.55,164.36Z"/><path d="M152.75,84.54a4.2,4.2,0,0,1-3.34,4.85,4.11,4.11,0,0,1-4.69-3.48A4.19,4.19,0,0,1,148,81.16,4.1,4.1,0,0,1,152.75,84.54Z"/><path d="M143.39,86.33A4.2,4.2,0,0,1,140,91.12a4.13,4.13,0,0,1-4.63-3.55,4.23,4.23,0,0,1,3.34-4.69A4.11,4.11,0,0,1,143.39,86.33Z"/><path d="M115.06,115.59a4.11,4.11,0,0,1-4.75-3.39,4.2,4.2,0,0,1,3.34-4.85,4.11,4.11,0,0,1,4.66,3.32A4.21,4.21,0,0,1,115.06,115.59Z"/><path d="M195.91,132.28a4.14,4.14,0,0,1,4.73,3.23,4.23,4.23,0,0,1-3.26,4.92,4.14,4.14,0,0,1-4.66-3.33A4.23,4.23,0,0,1,195.91,132.28Z"/><path d="M107.73,128.7a4.16,4.16,0,0,1,4.62,3.37,4.25,4.25,0,0,1-3.41,4.81,4.18,4.18,0,0,1-4.55-3.47A4.25,4.25,0,0,1,107.73,128.7Z"/><path d="M114,141.61a4.26,4.26,0,0,1-3.13,4.85,4.16,4.16,0,0,1-4.79-3.35,4.25,4.25,0,0,1,3.24-4.78A4.15,4.15,0,0,1,114,141.61Z"/><path d="M164.68,176.61a4.16,4.16,0,0,1-4.66-3.35,4.25,4.25,0,0,1,3.39-4.85,4.15,4.15,0,0,1,4.59,3.45A4.24,4.24,0,0,1,164.68,176.61Z"/><path d="M157.45,79.44a4.15,4.15,0,0,1,4.64,3.38,4.24,4.24,0,0,1-3.41,4.83,4.17,4.17,0,0,1-4.57-3.48A4.23,4.23,0,0,1,157.45,79.44Z"/><path d="M155.42,178.32a4.15,4.15,0,0,1-4.74-3.22,4.25,4.25,0,0,1,3.26-4.94,4.15,4.15,0,0,1,4.67,3.32A4.25,4.25,0,0,1,155.42,178.32Z"/><path d="M130.68,92.79a4.15,4.15,0,0,1-4.63-3.38,4.24,4.24,0,0,1,3.3-4.76A4.16,4.16,0,0,1,134,88,4.24,4.24,0,0,1,130.68,92.79Z"/><path d="M182.81,89a4.25,4.25,0,0,1-3.32,4.72,4.14,4.14,0,0,1-4.59-3.4,4.23,4.23,0,0,1,3.31-4.72A4.16,4.16,0,0,1,182.81,89Z"/><path d="M112.47,156a4.12,4.12,0,0,1-4.65-3.32A4.21,4.21,0,0,1,111.1,148a4.12,4.12,0,0,1,4.54,3.25A4.21,4.21,0,0,1,112.47,156Z"/><path d="M191.46,161.67a4.1,4.1,0,0,1-4.63-3.33,4.21,4.21,0,0,1,3.29-4.72,4.11,4.11,0,0,1,4.53,3.27A4.19,4.19,0,0,1,191.46,161.67Z"/><path d="M172.69,166.74a4.12,4.12,0,0,1,4.62,3.35,4.23,4.23,0,0,1-3.26,4.76,4.15,4.15,0,0,1-4.63-3.36A4.22,4.22,0,0,1,172.69,166.74Z"/><path d="M110.62,122.42a4.22,4.22,0,0,1-3.24,4.78,4.12,4.12,0,0,1-4.62-3.37,4.24,4.24,0,0,1,3.17-4.69A4.13,4.13,0,0,1,110.62,122.42Z"/><path d="M149.19,175.21A4.23,4.23,0,0,1,146,180a4.12,4.12,0,0,1-4.63-3.34,4.23,4.23,0,0,1,3.14-4.7A4.13,4.13,0,0,1,149.19,175.21Z"/><path d="M167.12,77.77a4,4,0,0,1,4.57,3.36,4.06,4.06,0,0,1-3.2,4.6,4,4,0,0,1-4.57-3.36A4.07,4.07,0,0,1,167.12,77.77Z"/><path d="M190.68,101.5a4,4,0,0,1-4.63-3.09,4.1,4.1,0,0,1,3.07-4.85,4,4,0,0,1,4.66,3.25A4.09,4.09,0,0,1,190.68,101.5Z"/><path d="M111.91,97.89a4,4,0,0,1,4.58,3.18,4.08,4.08,0,0,1-3,4.74,4,4,0,0,1-4.68-3.25A4.08,4.08,0,0,1,111.91,97.89Z"/><path d="M123.9,166a3.73,3.73,0,0,1,4.41,3.24,3.8,3.8,0,0,1-3.15,4.53,3.73,3.73,0,0,1-4.41-3.24A3.8,3.8,0,0,1,123.9,166Z"/><path d="M199.16,150.2a3.74,3.74,0,0,1-4.51-3.14,3.84,3.84,0,0,1,3-4.64,3.74,3.74,0,0,1,4.51,3.13A3.84,3.84,0,0,1,199.16,150.2Z"/><path d="M121,94.38a3.73,3.73,0,0,1-4.46-3.21,3.8,3.8,0,0,1,3.18-4.54,3.72,3.72,0,0,1,4.36,3.14A3.81,3.81,0,0,1,121,94.38Z"/><path d="M182.35,165.14a3.72,3.72,0,0,1,4.48,3.17,3.79,3.79,0,0,1-3.13,4.57,3.73,3.73,0,0,1-4.39-3.1A3.82,3.82,0,0,1,182.35,165.14Z"/><path d="M108.71,112.57a3.79,3.79,0,0,1-3.18,4.5,3.72,3.72,0,0,1-4.35-3.32,3.78,3.78,0,0,1,3.11-4.4A3.72,3.72,0,0,1,108.71,112.57Z"/><path d="M150.72,74.66a3.78,3.78,0,0,1-3.05,4.45,3.71,3.71,0,0,1-4.4-3.25,3.79,3.79,0,0,1,3.14-4.38A3.71,3.71,0,0,1,150.72,74.66Z"/><path d="M141.35,76.38a3.8,3.8,0,0,1-3,4.46,3.73,3.73,0,0,1-4.41-3.24A3.81,3.81,0,0,1,137,73.21,3.72,3.72,0,0,1,141.35,76.38Z"/><path d="M202,109.51a3.73,3.73,0,0,1-4.31-3.19,3.79,3.79,0,0,1,3.09-4.42,3.72,3.72,0,0,1,4.31,3.18A3.8,3.8,0,0,1,202,109.51Z"/><path d="M176.53,76.22a3.71,3.71,0,0,1,4.34,3.14,3.8,3.8,0,0,1-3.06,4.46,3.71,3.71,0,0,1-4.34-3.14A3.81,3.81,0,0,1,176.53,76.22Z"/><path d="M208.41,124.17a3.8,3.8,0,0,1-2.92,4.56,3.7,3.7,0,0,1-4.5-3.11,3.79,3.79,0,0,1,3-4.49A3.7,3.7,0,0,1,208.41,124.17Z"/><path d="M187.57,84.11a3.72,3.72,0,0,1,4.35,3.14,3.8,3.8,0,0,1-3.06,4.46,3.72,3.72,0,0,1-4.35-3.14A3.8,3.8,0,0,1,187.57,84.11Z"/><path d="M136.32,181.58a3.72,3.72,0,0,1-4.48-3.13,3.8,3.8,0,0,1,3-4.5,3.71,3.71,0,0,1,4.48,3.13A3.8,3.8,0,0,1,136.32,181.58Z"/><path d="M117.21,161.29a3.79,3.79,0,0,1-3.13,4.54,3.72,3.72,0,0,1-4.33-3.15,3.8,3.8,0,0,1,3.14-4.54A3.7,3.7,0,0,1,117.21,161.29Z"/><path d="M203.76,119.13a3.71,3.71,0,0,1-4.44-3,3.8,3.8,0,0,1,3.05-4.62,3.7,3.7,0,0,1,4.37,3.11A3.79,3.79,0,0,1,203.76,119.13Z"/><path d="M157,188a3.73,3.73,0,0,1-4.3-3.2,3.82,3.82,0,0,1,3-4.35,3.73,3.73,0,0,1,4.37,3.1A3.82,3.82,0,0,1,157,188Z"/><path d="M205.66,130.78a3.74,3.74,0,0,1,4.41,3.07,3.84,3.84,0,0,1-3,4.5,3.73,3.73,0,0,1-4.31-3A3.83,3.83,0,0,1,205.66,130.78Z"/><path d="M165,178.71a3.73,3.73,0,0,1,4.39,3.09,3.82,3.82,0,0,1-3.06,4.47,3.73,3.73,0,0,1-4.29-3A3.82,3.82,0,0,1,165,178.71Z"/><path d="M160.06,73a3.8,3.8,0,0,1-3.15,4.4,3.75,3.75,0,0,1-4.26-3.29,3.82,3.82,0,0,1,3.09-4.31A3.74,3.74,0,0,1,160.06,73Z"/><path d="M132,78.11a3.83,3.83,0,0,1-3.08,4.44,3.76,3.76,0,0,1-4.29-3.22,3.82,3.82,0,0,1,3-4.34A3.74,3.74,0,0,1,132,78.11Z"/><path d="M102.35,133.92a3.82,3.82,0,0,1-3.08,4.44A3.75,3.75,0,0,1,95,135.14a3.81,3.81,0,0,1,3-4.33A3.73,3.73,0,0,1,102.35,133.92Z"/><path d="M191.78,163.5a3.74,3.74,0,0,1,4.33,3.15,3.83,3.83,0,0,1-3.11,4.42,3.76,3.76,0,0,1-4.24-3.09A3.82,3.82,0,0,1,191.78,163.5Z"/><path d="M203.81,155.36a3.83,3.83,0,0,1-3.19,4.38,3.77,3.77,0,0,1-4.22-3.34,3.82,3.82,0,0,1,3.12-4.27A3.75,3.75,0,0,1,203.81,155.36Z"/><path d="M146.07,182.24a3.8,3.8,0,0,1,4.26,3.09,3.88,3.88,0,0,1-3.12,4.44,3.81,3.81,0,0,1-4.19-3.19A3.89,3.89,0,0,1,146.07,182.24Z"/><path d="M96.38,121.2a3.79,3.79,0,0,1,4.26,3.08,3.88,3.88,0,0,1-3.12,4.45,3.81,3.81,0,0,1-4.19-3.19A3.88,3.88,0,0,1,96.38,121.2Z"/><path d="M169.71,71.17a3.89,3.89,0,0,1-3,4.35,3.81,3.81,0,0,1-4.31-3.2A3.91,3.91,0,0,1,165.5,68,3.81,3.81,0,0,1,169.71,71.17Z"/><path d="M118.82,171a3.89,3.89,0,0,1-3,4.36,3.79,3.79,0,0,1-4.31-3.2,3.87,3.87,0,0,1,3.1-4.29A3.81,3.81,0,0,1,118.82,171Z"/><path d="M203.25,95.11a3.89,3.89,0,0,1-3,4.37,3.81,3.81,0,0,1-4.32-3.19A3.9,3.9,0,0,1,199,92,3.82,3.82,0,0,1,203.25,95.11Z"/><path d="M125.7,175.73a3.8,3.8,0,0,1,4.17,3.19,3.87,3.87,0,0,1-3.23,4.35,3.82,3.82,0,0,1-4.1-3.29A3.88,3.88,0,0,1,125.7,175.73Z"/><path d="M102.62,99.82A3.8,3.8,0,0,1,107,103a3.88,3.88,0,0,1-3,4.35,3.8,3.8,0,0,1-4.33-3.18A3.88,3.88,0,0,1,102.62,99.82Z"/><path d="M105.67,153.09a3.89,3.89,0,0,1-2.88,4.44,3.79,3.79,0,0,1-4.39-3.08,3.88,3.88,0,0,1,3-4.37A3.79,3.79,0,0,1,105.67,153.09Z"/><path d="M104,143.43a3.85,3.85,0,0,1-3,4.53,3.77,3.77,0,0,1-4.32-3,3.86,3.86,0,0,1,3-4.53A3.78,3.78,0,0,1,104,143.43Z"/><path d="M114.6,91.48a3.85,3.85,0,0,1-3,4.53,3.77,3.77,0,0,1-4.31-3,3.86,3.86,0,0,1,3-4.53A3.77,3.77,0,0,1,114.6,91.48Z"/><path d="M178.76,180a3.87,3.87,0,0,1-3,4.51,3.78,3.78,0,0,1-4.29-3,3.87,3.87,0,0,1,3-4.51A3.78,3.78,0,0,1,178.76,180Z"/><path d="M207.43,140.8a3.81,3.81,0,0,1,4.32,3,3.91,3.91,0,0,1-2.93,4.43,3.82,3.82,0,0,1-4.31-3A3.9,3.9,0,0,1,207.43,140.8Z"/><path d="M122.18,79.92a3.89,3.89,0,0,1-3,4.35A3.82,3.82,0,0,1,115,81.09a3.89,3.89,0,0,1,3-4.24A3.79,3.79,0,0,1,122.18,79.92Z"/><path d="M188.41,178.37a3.87,3.87,0,0,1-3.11,4.31,3.8,3.8,0,0,1-4.09-3.12,3.87,3.87,0,0,1,3.1-4.31A3.81,3.81,0,0,1,188.41,178.37Z"/><path d="M190.09,77.66a3.79,3.79,0,0,1-2.9,4.28A3.71,3.71,0,0,1,183,78.83a3.8,3.8,0,0,1,3-4.2A3.71,3.71,0,0,1,190.09,77.66Z"/><path d="M138,191.36a3.67,3.67,0,0,1-4.16-2.94,3.77,3.77,0,0,1,3-4.35,3.7,3.7,0,0,1,4.1,3.05A3.77,3.77,0,0,1,138,191.36Z"/><path d="M107.31,163.05a3.77,3.77,0,0,1-2.78,4.33,3.66,3.66,0,0,1-4.25-2.8,3.76,3.76,0,0,1,2.84-4.43A3.67,3.67,0,0,1,107.31,163.05Z"/><path d="M94.59,111.35a3.71,3.71,0,0,1,4.2,2.92,3.77,3.77,0,0,1-3,4.38,3.7,3.7,0,0,1-4.13-3A3.79,3.79,0,0,1,94.59,111.35Z"/><path d="M174.87,66.52a3.41,3.41,0,0,1,4,3,3.47,3.47,0,0,1-3,4.08A3.4,3.4,0,0,1,172,70.68,3.47,3.47,0,0,1,174.87,66.52Z"/><path d="M197.23,82.6a3.4,3.4,0,0,1,4.12,2.86,3.48,3.48,0,0,1-2.83,4.2,3.4,3.4,0,0,1-4-2.79A3.49,3.49,0,0,1,197.23,82.6Z"/><path d="M94.11,108.86A3.35,3.35,0,0,1,90.19,106a3.44,3.44,0,0,1,2.93-4.09,3.37,3.37,0,0,1,3.85,3A3.43,3.43,0,0,1,94.11,108.86Z"/><path d="M205.24,164.92a3.48,3.48,0,0,1-2.88,4.18,3.42,3.42,0,0,1-4-3,3.49,3.49,0,0,1,2.81-4.08A3.4,3.4,0,0,1,205.24,164.92Z"/><path d="M120.24,180.57a3.43,3.43,0,0,1-2.71,4.12,3.36,3.36,0,0,1-4.09-2.9,3.43,3.43,0,0,1,2.81-4.06A3.36,3.36,0,0,1,120.24,180.57Z"/><path d="M91.57,149.39a3.37,3.37,0,0,1-3.95-2.88,3.43,3.43,0,0,1,2.8-4,3.35,3.35,0,0,1,4,2.87A3.44,3.44,0,0,1,91.57,149.39Z"/><path d="M102.18,97.49a3.38,3.38,0,0,1-4-3,3.45,3.45,0,0,1,2.93-4.1A3.38,3.38,0,0,1,105,93.32,3.45,3.45,0,0,1,102.18,97.49Z"/><path d="M112.6,81.64a3.44,3.44,0,0,1-2.73,4.11,3.36,3.36,0,0,1-4.07-2.92,3.43,3.43,0,0,1,2.83-4A3.36,3.36,0,0,1,112.6,81.64Z"/><path d="M213,117.11a3.39,3.39,0,0,1-4.09-2.89,3.46,3.46,0,0,1,2.87-4.16,3.38,3.38,0,0,1,4,2.82A3.47,3.47,0,0,1,213,117.11Z"/><path d="M213.39,119.7a3.39,3.39,0,0,1,4.11,2.85,3.47,3.47,0,0,1-2.83,4.19,3.39,3.39,0,0,1-4-2.79A3.47,3.47,0,0,1,213.39,119.7Z"/><path d="M127.26,72.6a3.36,3.36,0,0,1-4-2.72A3.45,3.45,0,0,1,126,65.67a3.34,3.34,0,0,1,4,2.82A3.42,3.42,0,0,1,127.26,72.6Z"/><path d="M135.27,63.92a3.37,3.37,0,0,1,4.1,2.87,3.45,3.45,0,0,1-2.73,4.12,3.37,3.37,0,0,1-4.1-2.87A3.44,3.44,0,0,1,135.27,63.92Z"/><path d="M148.73,65a3.44,3.44,0,0,1-2.85,4.18,3.36,3.36,0,0,1-4-2.85,3.44,3.44,0,0,1,2.84-4.18A3.37,3.37,0,0,1,148.73,65Z"/><path d="M155.28,67.44a3.35,3.35,0,0,1-4-2.83,3.42,3.42,0,0,1,2.87-4.15,3.35,3.35,0,0,1,3.91,2.93A3.42,3.42,0,0,1,155.28,67.44Z"/><path d="M210.09,100.48a3.37,3.37,0,0,1,4,3,3.44,3.44,0,0,1-2.8,4,3.37,3.37,0,0,1-4-3A3.43,3.43,0,0,1,210.09,100.48Z"/><path d="M85.92,136.77a3.43,3.43,0,0,1,2.94-4,3.37,3.37,0,0,1,3.85,3,3.45,3.45,0,0,1-2.94,4A3.37,3.37,0,0,1,85.92,136.77Z"/><path d="M212.91,153.65a3.46,3.46,0,0,1-3,4.09,3.38,3.38,0,0,1-3.88-3,3.45,3.45,0,0,1,3-4.09A3.39,3.39,0,0,1,212.91,153.65Z"/><path d="M215.17,129.69a3.36,3.36,0,0,1,4,2.79,3.44,3.44,0,0,1-2.83,4.19,3.35,3.35,0,0,1-3.94-2.89A3.43,3.43,0,0,1,215.17,129.69Z"/><path d="M131.31,188.82a3.44,3.44,0,0,1-2.74,4.09,3.38,3.38,0,0,1-4-2.82,3.45,3.45,0,0,1,2.75-4.09A3.36,3.36,0,0,1,131.31,188.82Z"/><path d="M193.62,173.74a3.36,3.36,0,0,1,3.95,2.89,3.44,3.44,0,0,1-2.93,4.12,3.38,3.38,0,0,1-3.88-3A3.43,3.43,0,0,1,193.62,173.74Z"/><path d="M154.66,194.3a3.43,3.43,0,0,1,2.9-4,3.38,3.38,0,0,1,3.92,3.1,3.43,3.43,0,0,1-3,3.89A3.37,3.37,0,0,1,154.66,194.3Z"/><path d="M170.8,191.41a3.43,3.43,0,0,1-2.66,4.14,3.36,3.36,0,0,1-4.1-2.85,3.43,3.43,0,0,1,2.76-4.07A3.35,3.35,0,0,1,170.8,191.41Z"/><path d="M92.05,152.11A3.43,3.43,0,0,1,96,155a3.51,3.51,0,0,1-2.73,4,3.42,3.42,0,0,1-4-2.87A3.49,3.49,0,0,1,92.05,152.11Z"/><path d="M208.43,90.56a3.41,3.41,0,0,1,3.9,2.94,3.49,3.49,0,0,1-2.92,4,3.42,3.42,0,0,1-3.8-2.88A3.47,3.47,0,0,1,208.43,90.56Z"/><path d="M216.82,139.38a3.42,3.42,0,0,1,4,2.8,3.5,3.5,0,0,1-2.66,4,3.41,3.41,0,0,1-4-2.8A3.5,3.5,0,0,1,216.82,139.38Z"/><path d="M106,176.86a3.41,3.41,0,0,1-3.91-3,3.48,3.48,0,0,1,3-4,3.4,3.4,0,0,1,3.8,2.9A3.46,3.46,0,0,1,106,176.86Z"/><path d="M91,126a3.49,3.49,0,0,1-2.76,4.11,3.39,3.39,0,0,1-3.91-2.76,3.5,3.5,0,0,1,2.76-4.12A3.41,3.41,0,0,1,91,126Z"/><path d="M147.77,192.18a3.42,3.42,0,0,1,4,2.91,3.49,3.49,0,0,1-2.77,4,3.41,3.41,0,0,1-4-2.91A3.5,3.5,0,0,1,147.77,192.18Z"/><path d="M188.17,68a3.51,3.51,0,0,1-2.72,4.12,3.45,3.45,0,0,1-3.92-2.73,3.52,3.52,0,0,1,2.73-4.12A3.44,3.44,0,0,1,188.17,68Z"/><path d="M163.7,58.75a3.42,3.42,0,0,1,4,2.81,3.5,3.5,0,0,1-2.67,4,3.41,3.41,0,0,1-4-2.81A3.49,3.49,0,0,1,163.7,58.75Z"/><path d="M176.12,186.94a3.38,3.38,0,0,1,4,2.79,3.46,3.46,0,0,1-2.76,4.09,3.39,3.39,0,0,1-3.93-2.72A3.47,3.47,0,0,1,176.12,186.94Z"/><path d="M120.22,70.37a3.55,3.55,0,0,1-2.74,4,3.49,3.49,0,0,1-3.91-2.78,3.55,3.55,0,0,1,2.82-4.07A3.47,3.47,0,0,1,120.22,70.37Z"/><path d="M211.79,167.21a3.47,3.47,0,0,1-3.94-2.74,3.57,3.57,0,0,1,2.67-4.05,3.47,3.47,0,0,1,3.94,2.75A3.54,3.54,0,0,1,211.79,167.21Z"/><path d="M196.91,79.9a3.46,3.46,0,0,1-4-2.66,3.54,3.54,0,0,1,2.71-4.15,3.46,3.46,0,0,1,3.91,2.76A3.55,3.55,0,0,1,196.91,79.9Z"/><path d="M189.8,187.94a3.56,3.56,0,0,1-2.69,4,3.47,3.47,0,0,1-3.93-2.76,3.55,3.55,0,0,1,2.69-4A3.46,3.46,0,0,1,189.8,187.94Z"/><path d="M86.41,120.12a3.47,3.47,0,0,1-3.83-2.91,3.53,3.53,0,0,1,2.87-3.89,3.48,3.48,0,0,1,3.74,2.83A3.55,3.55,0,0,1,86.41,120.12Z"/><path d="M99.27,80.64a3.44,3.44,0,0,1,3.86,2.82,3.52,3.52,0,0,1-2.79,3.93,3.47,3.47,0,0,1-3.77-2.75A3.53,3.53,0,0,1,99.27,80.64Z"/><path d="M210.54,83.8a3.51,3.51,0,0,1-2.76,4A3.44,3.44,0,0,1,204,85a3.49,3.49,0,0,1,2.76-4A3.44,3.44,0,0,1,210.54,83.8Z"/><path d="M95.16,95.14a3.53,3.53,0,0,1-2.76,4,3.45,3.45,0,0,1-3.78-2.76,3.52,3.52,0,0,1,2.76-4A3.46,3.46,0,0,1,95.16,95.14Z"/><path d="M139.62,200.71a3.45,3.45,0,0,1-3.91-2.77,3.54,3.54,0,0,1,2.76-4,3.46,3.46,0,0,1,3.8,2.71A3.53,3.53,0,0,1,139.62,200.71Z"/><path d="M204.09,178.9a3.47,3.47,0,0,1-3.86-2.87,3.54,3.54,0,0,1,2.84-3.93,3.49,3.49,0,0,1,3.76,2.8A3.55,3.55,0,0,1,204.09,178.9Z"/><path d="M97.69,164.88a3.52,3.52,0,0,1-2.7,4A3.45,3.45,0,0,1,91.13,166a3.54,3.54,0,0,1,2.64-3.89A3.45,3.45,0,0,1,97.69,164.88Z"/><path d="M174.32,63.78a3.42,3.42,0,0,1-3.85-2.84,3.51,3.51,0,0,1,2.7-3.84A3.43,3.43,0,0,1,177,59.94,3.5,3.5,0,0,1,174.32,63.78Z"/><path d="M222.29,115.16a3.35,3.35,0,0,1-3.75-2.74,3.42,3.42,0,0,1,2.67-3.85,3.35,3.35,0,0,1,3.75,2.74A3.42,3.42,0,0,1,222.29,115.16Z"/><path d="M106.55,179.71a3.37,3.37,0,0,1,3.81,2.64,3.45,3.45,0,0,1-2.69,4,3.39,3.39,0,0,1-3.75-2.74A3.44,3.44,0,0,1,106.55,179.71Z"/><path d="M216,153a3.45,3.45,0,0,1,2.61-3.89,3.37,3.37,0,0,1,3.85,2.79,3.45,3.45,0,0,1-2.7,3.83A3.39,3.39,0,0,1,216,153Z"/><path d="M107.08,69.36a3.3,3.3,0,0,1,3.65,2.84A3.36,3.36,0,0,1,108,76a3.31,3.31,0,0,1-3.65-2.83A3.38,3.38,0,0,1,107.08,69.36Z"/><path d="M119.23,194.48a3.37,3.37,0,0,1-3.84-2.6,3.45,3.45,0,0,1,2.48-4,3.37,3.37,0,0,1,3.94,2.67A3.47,3.47,0,0,1,119.23,194.48Z"/><path d="M226.61,120.85a3.39,3.39,0,0,1-2.56,3.9,3.3,3.3,0,0,1-3.8-2.63,3.4,3.4,0,0,1,2.57-3.91A3.31,3.31,0,0,1,226.61,120.85Z"/><path d="M99.16,174.48a3.09,3.09,0,0,1-2.4,3.78A3,3,0,0,1,93,175.67a3.08,3.08,0,0,1,2.49-3.7A3,3,0,0,1,99.16,174.48Z"/><path d="M197.6,66.24A3.08,3.08,0,0,1,195.22,70a3,3,0,0,1-3.74-2.56A3.09,3.09,0,0,1,194,63.74,3,3,0,0,1,197.6,66.24Z"/><path d="M143.13,52.85a3.08,3.08,0,0,1,3.65,2.74,3.14,3.14,0,0,1-2.73,3.71,3.06,3.06,0,0,1-3.54-2.67A3.14,3.14,0,0,1,143.13,52.85Z"/><path d="M134.88,61a3.06,3.06,0,0,1-3.72-2.62,3.12,3.12,0,0,1,2.59-3.78,3,3,0,0,1,3.62,2.54A3.14,3.14,0,0,1,134.88,61Z"/><path d="M87.31,106.59a3.1,3.1,0,0,1-2.69,3.72,3,3,0,0,1-3.52-2.69,3.11,3.11,0,0,1,2.69-3.72A3,3,0,0,1,87.31,106.59Z"/><path d="M199,186.32a3.13,3.13,0,0,1-2.64,3.76,3.09,3.09,0,0,1-3.63-2.77,3.13,3.13,0,0,1,2.58-3.66A3.06,3.06,0,0,1,199,186.32Z"/><path d="M128,58.9a3.07,3.07,0,0,1-2.4,3.75,3,3,0,0,1-3.72-2.59,3.06,3.06,0,0,1,2.5-3.68A3,3,0,0,1,128,58.9Z"/><path d="M132.73,198.59a3.09,3.09,0,0,1-2.7,3.68,3,3,0,0,1-3.49-2.71,3.1,3.1,0,0,1,2.71-3.68A3,3,0,0,1,132.73,198.59Z"/><path d="M156.09,53.76a3.11,3.11,0,0,1-2.61,3.77,3,3,0,0,1-3.57-2.61,3.11,3.11,0,0,1,2.61-3.77A3,3,0,0,1,156.09,53.76Z"/><path d="M224.77,128.24a3,3,0,0,1,3.51,2.7,3.12,3.12,0,0,1-2.7,3.71,3.06,3.06,0,0,1-3.53-2.88A3.1,3.1,0,0,1,224.77,128.24Z"/><path d="M223.15,101.59a3.12,3.12,0,0,1-2.53,3.84A3,3,0,0,1,217,102.9a3.11,3.11,0,0,1,2.52-3.84A3,3,0,0,1,223.15,101.59Z"/><path d="M169.72,204.86a3,3,0,0,1-3.66-2.48,3.08,3.08,0,0,1,2.53-3.82,3,3,0,0,1,3.58,2.58A3.07,3.07,0,0,1,169.72,204.86Z"/><path d="M162.81,202.9a3.1,3.1,0,0,1-2.49,3.68,3,3,0,0,1-3.65-2.67,3.1,3.1,0,0,1,2.59-3.62A3,3,0,0,1,162.81,202.9Z"/><path d="M179,203.12a3,3,0,0,1-3.55-2.61,3.08,3.08,0,0,1,2.54-3.65,3,3,0,0,1,3.55,2.61A3.09,3.09,0,0,1,179,203.12Z"/><path d="M83,137.49a3.09,3.09,0,0,1-2.52,3.68,3,3,0,0,1-3.58-2.6,3.09,3.09,0,0,1,2.52-3.68A3,3,0,0,1,83,137.49Z"/><path d="M84.68,147.1a3.1,3.1,0,0,1-2.51,3.68,3,3,0,0,1-3.59-2.58,3.1,3.1,0,0,1,2.51-3.68A3,3,0,0,1,84.68,147.1Z"/><path d="M163.22,55.67A3.06,3.06,0,0,1,159.66,53a3.12,3.12,0,0,1,2.6-3.62A3.08,3.08,0,0,1,165.73,52,3.14,3.14,0,0,1,163.22,55.67Z"/><path d="M77.11,121.5a3.1,3.1,0,0,1-3.56-2.45,3.17,3.17,0,0,1,2.39-3.65,3.1,3.1,0,0,1,3.56,2.45A3.18,3.18,0,0,1,77.11,121.5Z"/><path d="M208.64,74.22a3.12,3.12,0,0,1-2.54,3.68,3.07,3.07,0,0,1-3.56-2.65A3.14,3.14,0,0,1,205,71.66,3.06,3.06,0,0,1,208.64,74.22Z"/><path d="M115.61,64.43a3.11,3.11,0,0,1-3.45-2.79,3.17,3.17,0,0,1,2.65-3.45,3.1,3.1,0,0,1,3.44,2.8A3.14,3.14,0,0,1,115.61,64.43Z"/><path d="M111.88,192.4a3.16,3.16,0,0,1-2.39,3.63,3.09,3.09,0,0,1-3.6-2.57,3.16,3.16,0,0,1,2.49-3.56A3.09,3.09,0,0,1,111.88,192.4Z"/><path d="M212.42,170.65a3.08,3.08,0,0,1,3.54,2.68,3.13,3.13,0,0,1-2.66,3.59,3.06,3.06,0,0,1-3.44-2.6A3.13,3.13,0,0,1,212.42,170.65Z"/><path d="M226.34,138a3.06,3.06,0,0,1,3.55,2.62,3.13,3.13,0,0,1-2.6,3.62,3.06,3.06,0,0,1-3.45-2.55A3.13,3.13,0,0,1,226.34,138Z"/><path d="M101.15,73.77a3.16,3.16,0,0,1-2.35,3.68,3.08,3.08,0,0,1-3.64-2.54,3.14,3.14,0,0,1,2.45-3.6A3.08,3.08,0,0,1,101.15,73.77Z"/><path d="M150.6,208.35a3.06,3.06,0,0,1-3.59-2.59,3.13,3.13,0,0,1,2.57-3.65,3.07,3.07,0,0,1,3.49,2.51A3.15,3.15,0,0,1,150.6,208.35Z"/><path d="M93.18,85.32a3.15,3.15,0,0,1-2.66,3.6,3.08,3.08,0,0,1-3.4-2.65,3.14,3.14,0,0,1,2.65-3.6A3.09,3.09,0,0,1,93.18,85.32Z"/><path d="M208.22,184.58a3.14,3.14,0,0,1-2.55,3.65,3.1,3.1,0,0,1-3.46-2.55,3.16,3.16,0,0,1,2.56-3.66A3.08,3.08,0,0,1,208.22,184.58Z"/><path d="M140.11,203.91a3.1,3.1,0,0,1,3.55,2.47,3.18,3.18,0,0,1-2.41,3.64,3.1,3.1,0,0,1-3.54-2.47A3.17,3.17,0,0,1,140.11,203.91Z"/><path d="M187.68,195.11a3.09,3.09,0,0,1,3.49,2.54,3.15,3.15,0,0,1-2.42,3.62,3.08,3.08,0,0,1-3.59-2.6A3.17,3.17,0,0,1,187.68,195.11Z"/><path d="M82,94.4A3.1,3.1,0,0,1,85.52,97a3.16,3.16,0,0,1-2.43,3.6,3.08,3.08,0,0,1-3.57-2.61A3.16,3.16,0,0,1,82,94.4Z"/><path d="M80.27,157.68A3.14,3.14,0,0,1,83,154.13a3.1,3.1,0,0,1,3.36,2.73,3.14,3.14,0,0,1-2.73,3.55A3.1,3.1,0,0,1,80.27,157.68Z"/><path d="M81.29,127.82a3.12,3.12,0,0,1-2.48,3.7,3.05,3.05,0,0,1-3.58-2.6,3.13,3.13,0,0,1,2.42-3.6A3.05,3.05,0,0,1,81.29,127.82Z"/><path d="M182.62,55.58a3.08,3.08,0,0,1,3.54,2.68,3.13,3.13,0,0,1-2.65,3.6,3.08,3.08,0,0,1-3.44-2.61A3.13,3.13,0,0,1,182.62,55.58Z"/><path d="M223.9,161.62a3.07,3.07,0,1,1-3.36-2.73A3.09,3.09,0,0,1,223.9,161.62Z"/><path d="M217.74,89.17a3.06,3.06,0,0,1,3.62,2.55,3.13,3.13,0,0,1-2.53,3.69,3.06,3.06,0,0,1-3.52-2.48A3.14,3.14,0,0,1,217.74,89.17Z"/><path d="M219.61,82.14a3.16,3.16,0,0,1-2.49,3.58,3.1,3.1,0,0,1-3.46-2.61,3.16,3.16,0,0,1,2.43-3.48A3.08,3.08,0,0,1,219.61,82.14Z"/><path d="M84.51,164.19A3.08,3.08,0,0,1,88,166.71a3.15,3.15,0,0,1-2.5,3.58,3.1,3.1,0,0,1-3.42-2.45A3.17,3.17,0,0,1,84.51,164.19Z"/><path d="M97.2,181.7a3.09,3.09,0,0,1,3.55,2.48,3.17,3.17,0,0,1-2.46,3.61,3.1,3.1,0,0,1-3.45-2.41A3.17,3.17,0,0,1,97.2,181.7Z"/><path d="M171.61,47.77A3.1,3.1,0,0,1,175,50.4a3.16,3.16,0,0,1-2.61,3.49,3.11,3.11,0,0,1-3.33-2.56A3.16,3.16,0,0,1,171.61,47.77Z"/><path d="M120.76,203.86a3.09,3.09,0,0,1-3.47-2.55,3.17,3.17,0,0,1,2.49-3.57,3.1,3.1,0,0,1,3.47,2.56A3.16,3.16,0,0,1,120.76,203.86Z"/><path d="M108.76,62.49A3.19,3.19,0,0,1,106.42,66a3.1,3.1,0,0,1-3.5-2.52A3.19,3.19,0,0,1,105.35,60,3.11,3.11,0,0,1,108.76,62.49Z"/><path d="M229.07,153.7a3.13,3.13,0,0,1-3.49-2.56,3.22,3.22,0,0,1,2.43-3.48,3.14,3.14,0,0,1,3.49,2.56A3.22,3.22,0,0,1,229.07,153.7Z"/><path d="M75.39,111.76A3,3,0,0,1,72,109.35a3,3,0,0,1,2.24-3.43,3,3,0,0,1,3.47,2.31A3,3,0,0,1,75.39,111.76Z"/><path d="M232.24,116.82a3,3,0,0,1,3.42,2.37,3.06,3.06,0,0,1-2.31,3.5,3,3,0,0,1-3.42-2.37A3.06,3.06,0,0,1,232.24,116.82Z"/><path d="M195.67,56.35a3.06,3.06,0,0,1-2.31,3.51A3,3,0,0,1,190,57.49a3.06,3.06,0,0,1,2.3-3.51A3,3,0,0,1,195.67,56.35Z"/><path d="M206.79,64.58a3.1,3.1,0,0,1-2.32,3.53A3,3,0,0,1,201,65.73a3.08,3.08,0,0,1,2.32-3.52A3,3,0,0,1,206.79,64.58Z"/><path d="M231.59,113.1a3,3,0,0,1-3.36-2.48,3.07,3.07,0,0,1,2.41-3.44,3,3,0,0,1,3.36,2.47A3.08,3.08,0,0,1,231.59,113.1Z"/><path d="M198,199.45a3,3,0,0,1-3.37-2.49,3.11,3.11,0,0,1,2.42-3.47,3,3,0,0,1,3.38,2.49A3.11,3.11,0,0,1,198,199.45Z"/><path d="M81.31,90.32a2.68,2.68,0,0,1-3.25-2.25,2.75,2.75,0,0,1,2.19-3.34A2.68,2.68,0,0,1,83.5,87,2.75,2.75,0,0,1,81.31,90.32Z"/><path d="M151.8,47.56a2.71,2.71,0,0,1-3.23-2.3,2.76,2.76,0,0,1,2.34-3.39,2.72,2.72,0,0,1,3.17,2.39A2.77,2.77,0,0,1,151.8,47.56Z"/><path d="M144.73,45.86a2.82,2.82,0,0,1-2.29,3.45A2.74,2.74,0,0,1,139.18,47a2.83,2.83,0,0,1,2.28-3.46A2.77,2.77,0,0,1,144.73,45.86Z"/><path d="M135.36,47.61a2.8,2.8,0,0,1-2.3,3.42,2.73,2.73,0,0,1-3.24-2.28,2.81,2.81,0,0,1,2.3-3.43A2.74,2.74,0,0,1,135.36,47.61Z"/><path d="M86.26,174a2.73,2.73,0,0,1,3.26,2.44,2.77,2.77,0,0,1-2.31,3.25A2.73,2.73,0,0,1,84,177.25,2.79,2.79,0,0,1,86.26,174Z"/><path d="M234,126.9a2.71,2.71,0,0,1,3.31,2.19,2.78,2.78,0,0,1-2.26,3.46,2.7,2.7,0,0,1-3.23-2.29A2.77,2.77,0,0,1,234,126.9Z"/><path d="M91.23,75.82A2.77,2.77,0,0,1,88.85,79a2.72,2.72,0,0,1-3.16-2.57,2.76,2.76,0,0,1,2.47-3.11A2.72,2.72,0,0,1,91.23,75.82Z"/><path d="M217.35,183a2.78,2.78,0,0,1-2.3,3.28,2.73,2.73,0,0,1-3.25-2.49,2.76,2.76,0,0,1,2.4-3.2A2.71,2.71,0,0,1,217.35,183Z"/><path d="M217.71,72.6a2.75,2.75,0,0,1-2.27,3.27,2.72,2.72,0,0,1-3.25-2.46,2.77,2.77,0,0,1,2.38-3.2A2.7,2.7,0,0,1,217.71,72.6Z"/><path d="M184.15,48.55A2.74,2.74,0,0,1,182,51.89a2.68,2.68,0,0,1-3.26-2.25,2.75,2.75,0,0,1,2.19-3.35A2.68,2.68,0,0,1,184.15,48.55Z"/><path d="M232.22,100.07a2.81,2.81,0,0,1-2.44,3.33,2.76,2.76,0,0,1-3.14-2.44,2.81,2.81,0,0,1,2.44-3.32A2.74,2.74,0,0,1,232.22,100.07Z"/><path d="M126,49.46a2.76,2.76,0,0,1-2.28,3.26,2.7,2.7,0,0,1-3.24-2.45,2.76,2.76,0,0,1,2.37-3.2A2.71,2.71,0,0,1,126,49.46Z"/><path d="M225.35,171.42a2.78,2.78,0,0,1-2.15,3.38,2.71,2.71,0,0,1-3.36-2.32,2.77,2.77,0,0,1,2.24-3.32A2.72,2.72,0,0,1,225.35,171.42Z"/><path d="M134.09,208.12a2.81,2.81,0,0,1-2.29,3.43,2.74,2.74,0,0,1-3.25-2.28,2.81,2.81,0,0,1,2.29-3.43A2.73,2.73,0,0,1,134.09,208.12Z"/><path d="M162,215.85a2.68,2.68,0,0,1-3.27-2.22,2.74,2.74,0,0,1,2.17-3.35,2.67,2.67,0,0,1,3.26,2.22A2.73,2.73,0,0,1,162,215.85Z"/><path d="M170.24,208.55a2.68,2.68,0,0,1,3.27,2.22,2.76,2.76,0,0,1-2.17,3.36,2.68,2.68,0,0,1-3.26-2.23A2.74,2.74,0,0,1,170.24,208.55Z"/><path d="M161.48,45.71a2.7,2.7,0,0,1-3.17-2.35,2.74,2.74,0,0,1,2.33-3.22,2.69,2.69,0,0,1,3.07,2.27A2.76,2.76,0,0,1,161.48,45.71Z"/><path d="M99.17,64.27a2.76,2.76,0,0,1-2.29,3.28,2.7,2.7,0,0,1-3.09-2.28A2.75,2.75,0,0,1,96.08,62,2.69,2.69,0,0,1,99.17,64.27Z"/><path d="M75.83,98.7A2.77,2.77,0,0,1,73.71,102a2.72,2.72,0,0,1-3.24-2.31,2.77,2.77,0,0,1,2.23-3.18A2.7,2.7,0,0,1,75.83,98.7Z"/><path d="M75,148.91a2.76,2.76,0,0,1-2.3,3.27,2.71,2.71,0,0,1-3.14-2.42,2.75,2.75,0,0,1,2.23-3.17A2.69,2.69,0,0,1,75,148.91Z"/><path d="M70.1,137a2.7,2.7,0,0,1,3.2,2.34A2.76,2.76,0,0,1,71,142.56a2.7,2.7,0,0,1-3.1-2.26A2.76,2.76,0,0,1,70.1,137Z"/><path d="M230.75,163.08a2.7,2.7,0,0,1-3.24-2.28,2.75,2.75,0,0,1,2.27-3.29,2.69,2.69,0,0,1,3.14,2.21A2.76,2.76,0,0,1,230.75,163.08Z"/><path d="M102.22,194.16a2.75,2.75,0,0,1-2.2,3.31,2.69,2.69,0,0,1-3.2-2.31A2.76,2.76,0,0,1,99,191.94,2.7,2.7,0,0,1,102.22,194.16Z"/><path d="M110,199.83a2.7,2.7,0,0,1,3.25,2.23,2.76,2.76,0,0,1-2.22,3.3,2.68,2.68,0,0,1-3.15-2.15A2.76,2.76,0,0,1,110,199.83Z"/><path d="M91.08,186a2.78,2.78,0,0,1-2.23,3.17,2.73,2.73,0,0,1-3.09-2.29A2.8,2.8,0,0,1,88,183.73,2.73,2.73,0,0,1,91.08,186Z"/><path d="M74.35,161.77a2.72,2.72,0,0,1-3.11-2.45,2.76,2.76,0,0,1,2.31-3.1,2.72,2.72,0,0,1,3.11,2.45A2.76,2.76,0,0,1,74.35,161.77Z"/><path d="M230.4,90.08a2.75,2.75,0,0,1-2.29,3.27A2.71,2.71,0,0,1,225,91a2.75,2.75,0,0,1,2.22-3.17A2.69,2.69,0,0,1,230.4,90.08Z"/><path d="M124.61,209.91a2.78,2.78,0,0,1-2.12,3.23,2.72,2.72,0,0,1-3.21-2.3,2.78,2.78,0,0,1,2.22-3.16A2.72,2.72,0,0,1,124.61,209.91Z"/><path d="M68.42,127.38a2.69,2.69,0,0,1,3.18,2.35,2.75,2.75,0,0,1-2.21,3.17,2.71,2.71,0,0,1-3.19-2.35A2.76,2.76,0,0,1,68.42,127.38Z"/><path d="M206.56,192a2.73,2.73,0,0,1,3.07,2.53,2.77,2.77,0,0,1-2.39,3.06,2.73,2.73,0,0,1-3.07-2.53A2.77,2.77,0,0,1,206.56,192Z"/><path d="M154.42,214.36a2.74,2.74,0,0,1-2.29,3.27,2.68,2.68,0,0,1-3.09-2.28,2.76,2.76,0,0,1,2.29-3.28A2.7,2.7,0,0,1,154.42,214.36Z"/><path d="M238.93,138.92a2.75,2.75,0,0,1-2.35,3.21,2.72,2.72,0,0,1-3.09-2.46,2.76,2.76,0,0,1,2.28-3.11A2.69,2.69,0,0,1,238.93,138.92Z"/><path d="M116.2,51.18a2.77,2.77,0,0,1-2.13,3.25,2.7,2.7,0,0,1-3.23-2.31,2.77,2.77,0,0,1,2.23-3.18A2.72,2.72,0,0,1,116.2,51.18Z"/><path d="M180.59,212.4a2.7,2.7,0,0,1-3.15-2.39,2.74,2.74,0,0,1,2.2-3.17,2.68,2.68,0,0,1,3.22,2.28A2.76,2.76,0,0,1,180.59,212.4Z"/><path d="M192.5,207.25a2.79,2.79,0,0,1-2,3.28,2.73,2.73,0,0,1-3.27-2.22,2.79,2.79,0,0,1,2.15-3.22A2.71,2.71,0,0,1,192.5,207.25Z"/><path d="M201.7,52.5a2.79,2.79,0,0,1,3.11,2.29,2.86,2.86,0,0,1-2.16,3.1,2.79,2.79,0,0,1-3.12-2.29A2.86,2.86,0,0,1,201.7,52.5Z"/><path d="M67.69,122.88a2.8,2.8,0,0,1-3.17-2.2,2.86,2.86,0,0,1,2.19-3.22,2.8,2.8,0,0,1,3.07,2.13A2.85,2.85,0,0,1,67.69,122.88Z"/><path d="M228.64,80.43a2.84,2.84,0,0,1-2.18,3.22,2.78,2.78,0,0,1-3.1-2.29,2.84,2.84,0,0,1,2.11-3.12A2.77,2.77,0,0,1,228.64,80.43Z"/><path d="M78.32,168.47a2.85,2.85,0,0,1-2.24,3.2,2.8,2.8,0,0,1-3-2.23,2.84,2.84,0,0,1,2.24-3.19A2.79,2.79,0,0,1,78.32,168.47Z"/><path d="M145,216.12a2.86,2.86,0,0,1-2.24,3.19,2.79,2.79,0,0,1-3.06-2.35,2.86,2.86,0,0,1,2.17-3.09A2.8,2.8,0,0,1,145,216.12Z"/><path d="M173,40.72a2.83,2.83,0,0,1-2.23,3.19,2.79,2.79,0,0,1-3-2.22,2.84,2.84,0,0,1,2.23-3.2A2.79,2.79,0,0,1,173,40.72Z"/><path d="M240.52,148.47a2.86,2.86,0,0,1-2.22,3.19,2.82,2.82,0,0,1-3-2.22,2.85,2.85,0,0,1,2.22-3.19A2.81,2.81,0,0,1,240.52,148.47Z"/><path d="M223.79,179a2.79,2.79,0,0,1,3.07,2.12,2.83,2.83,0,0,1-2.17,3.21,2.78,2.78,0,0,1-3-2.21A2.86,2.86,0,0,1,223.79,179Z"/><path d="M213.81,66.09A2.78,2.78,0,0,1,210.69,64a2.85,2.85,0,0,1,2.14-3.26,2.79,2.79,0,0,1,3,2.18A2.85,2.85,0,0,1,213.81,66.09Z"/><path d="M191.64,50a2.76,2.76,0,0,1-3.09-2.08,2.87,2.87,0,0,1,2-3.2,2.76,2.76,0,0,1,3.18,2.15A2.83,2.83,0,0,1,191.64,50Z"/><path d="M103.78,50.75a2.78,2.78,0,0,1,3,2.23,2.64,2.64,0,1,1-3-2.23Z"/><path d="M81.63,77.49a2.67,2.67,0,0,1-2.17,3,2.62,2.62,0,0,1-2.9-2.27,2.69,2.69,0,0,1,2.09-2.93A2.62,2.62,0,0,1,81.63,77.49Z"/><path d="M234.51,169.83a2.72,2.72,0,0,1-2.16,3.06,2.68,2.68,0,0,1-2.95-2.28,2.74,2.74,0,0,1,2.1-3A2.66,2.66,0,0,1,234.51,169.83Z"/><path d="M218.78,192.5a2.68,2.68,0,0,1-2.05,3.11,2.63,2.63,0,0,1-3-2,2.7,2.7,0,0,1,1.95-3.18A2.63,2.63,0,0,1,218.78,192.5Z"/><path d="M201.76,205.58a2.73,2.73,0,0,1-2,3.12,2.66,2.66,0,0,1-3-2.1,2.73,2.73,0,0,1,2-3.12A2.67,2.67,0,0,1,201.76,205.58Z"/><path d="M240.53,105.83a2.36,2.36,0,0,1,2.72,2.18,2.41,2.41,0,0,1-2.23,2.86,2.37,2.37,0,0,1-2.66-2.27A2.41,2.41,0,0,1,240.53,105.83Z"/><path d="M103.63,203.91a2.38,2.38,0,0,1-2,2.89,2.36,2.36,0,0,1-2.88-2.16,2.4,2.4,0,0,1,2.08-2.82A2.35,2.35,0,0,1,103.63,203.91Z"/><path d="M242.12,115.47a2.35,2.35,0,0,1,2.8,2.07,2.42,2.42,0,0,1-2.14,2.94,2.36,2.36,0,0,1-2.72-2.18A2.39,2.39,0,0,1,242.12,115.47Z"/><path d="M87.15,69.08A2.36,2.36,0,0,1,84.34,67a2.44,2.44,0,0,1,2.15-3,2.55,2.55,0,0,1,.66,5.06Z"/><path d="M79.79,178.1a2.41,2.41,0,0,1-1.91,3,2.53,2.53,0,1,1,1.91-3Z"/><path d="M69,89.55a2.4,2.4,0,0,1,2.12-2.8A2.37,2.37,0,0,1,73.87,89a2.4,2.4,0,0,1-2.21,2.73A2.37,2.37,0,0,1,69,89.55Z"/><path d="M67.92,110a2.46,2.46,0,0,1-2,3,2.39,2.39,0,0,1-2.87-2,2.47,2.47,0,0,1,2-3A2.39,2.39,0,0,1,67.92,110Z"/><path d="M133.37,220.83a2.36,2.36,0,0,1-2.81-2.09,2.43,2.43,0,0,1,2.15-3,2.39,2.39,0,0,1,2.75,2.19A2.42,2.42,0,0,1,133.37,220.83Z"/><path d="M112.66,214.66a2.34,2.34,0,0,1-2.8-2.07,2.4,2.4,0,0,1,2.07-2.85,2.34,2.34,0,0,1,2.71,2A2.4,2.4,0,0,1,112.66,214.66Z"/><path d="M244.7,130.37a2.35,2.35,0,0,1-2.85-2,2.39,2.39,0,0,1,2-2.89,2.34,2.34,0,0,1,2.75,1.94A2.4,2.4,0,0,1,244.7,130.37Z"/><path d="M150,37.2a2.35,2.35,0,0,1-2.84-2,2.39,2.39,0,0,1,2-2.89,2.33,2.33,0,0,1,2.75,1.93A2.41,2.41,0,0,1,150,37.2Z"/><path d="M142.62,36.12A2.4,2.4,0,0,1,140.57,39a2.36,2.36,0,0,1-2.77-2.11,2.4,2.4,0,0,1,2-2.85A2.35,2.35,0,0,1,142.62,36.12Z"/><path d="M133.25,37.8a2.39,2.39,0,0,1-2,2.88,2.35,2.35,0,0,1-2.81-2,2.41,2.41,0,0,1,2-2.89A2.35,2.35,0,0,1,133.25,37.8Z"/><path d="M121.91,42.38a2.36,2.36,0,0,1-2.81-2.09,2.39,2.39,0,0,1,2-2.78,2.36,2.36,0,0,1,2.81,2.08A2.41,2.41,0,0,1,121.91,42.38Z"/><path d="M182.17,39.18A2.41,2.41,0,0,1,180,42a2.38,2.38,0,0,1-2.71-2.2A2.41,2.41,0,0,1,179.46,37,2.38,2.38,0,0,1,182.17,39.18Z"/><path d="M97.16,54.75a2.41,2.41,0,0,1-1.89,2.81,2.35,2.35,0,0,1-2.83-2,2.41,2.41,0,0,1,1.88-2.81A2.35,2.35,0,0,1,97.16,54.75Z"/><path d="M238.77,96.26a2.35,2.35,0,0,1,2.77,2.1,2.4,2.4,0,0,1-2,2.84,2.35,2.35,0,0,1-2.77-2.1A2.4,2.4,0,0,1,238.77,96.26Z"/><path d="M89.8,194a2.36,2.36,0,0,1,2.77,2.12,2.4,2.4,0,0,1-2.12,2.81,2.34,2.34,0,0,1-2.67-2.05A2.39,2.39,0,0,1,89.8,194Z"/><path d="M224.83,73.77a2.34,2.34,0,0,1-2.89-1.93,2.4,2.4,0,0,1,1.88-3,2.34,2.34,0,0,1,2.89,1.93A2.41,2.41,0,0,1,224.83,73.77Z"/><path d="M242,158.09a2.39,2.39,0,0,1-2,2.93,2.34,2.34,0,0,1-2.82-2.06,2.39,2.39,0,0,1,1.89-2.82A2.34,2.34,0,0,1,242,158.09Z"/><path d="M208.21,201.94a2.34,2.34,0,0,1,2.72,2,2.4,2.4,0,0,1-2,2.89,2.35,2.35,0,0,1-2.74-2.13A2.39,2.39,0,0,1,208.21,201.94Z"/><path d="M174.9,220.94a2.4,2.4,0,0,1-1.94,2.78,2.36,2.36,0,0,1-2.79-2.07,2.4,2.4,0,0,1,2.1-2.8A2.35,2.35,0,0,1,174.9,220.94Z"/><path d="M60.42,139.15a2.43,2.43,0,0,1,2.8,1.92,2.47,2.47,0,0,1-1.87,2.87,2.41,2.41,0,0,1-2.8-1.92A2.48,2.48,0,0,1,60.42,139.15Z"/><path d="M237,86.35a2.41,2.41,0,0,1,2.73,2,2.45,2.45,0,0,1-2,2.86A2.42,2.42,0,0,1,235,89.12,2.48,2.48,0,0,1,237,86.35Z"/><path d="M248.24,137.06a2.48,2.48,0,0,1-1.84,2.87,2.42,2.42,0,0,1-2.8-1.9,2.48,2.48,0,0,1,1.84-2.87A2.43,2.43,0,0,1,248.24,137.06Z"/><path d="M161.62,32.61a2.48,2.48,0,0,1-2,2.77,2.44,2.44,0,0,1-2.69-2.06,2.48,2.48,0,0,1,2-2.76A2.43,2.43,0,0,1,161.62,32.61Z"/><path d="M63,153.58a2.42,2.42,0,0,1-2.73-2,2.46,2.46,0,0,1,2-2.8,2.41,2.41,0,0,1,2.73,2A2.47,2.47,0,0,1,63,153.58Z"/><path d="M66.13,100.54a2.46,2.46,0,0,1-1.95,2.8,2.42,2.42,0,0,1-2.72-2,2.48,2.48,0,0,1,1.95-2.8A2.42,2.42,0,0,1,66.13,100.54Z"/><path d="M163.64,225.43a2.38,2.38,0,0,1-2.8-1.88,2.44,2.44,0,0,1,1.94-2.94,2.39,2.39,0,0,1,2.74,2A2.45,2.45,0,0,1,163.64,225.43Z"/><path d="M182.26,222a2.42,2.42,0,0,1-2.7-2,2.47,2.47,0,0,1,2-2.77,2.42,2.42,0,0,1,2.7,2A2.47,2.47,0,0,1,182.26,222Z"/><path d="M114.1,41.36a2.48,2.48,0,0,1-2,2.76,2.45,2.45,0,0,1-2.66-2.1,2.51,2.51,0,0,1,1.93-2.66A2.43,2.43,0,0,1,114.1,41.36Z"/><path d="M78.62,185.82a2.44,2.44,0,0,1,2.76,2,2.49,2.49,0,0,1-2,2.79,2.45,2.45,0,0,1-2.66-1.9A2.5,2.5,0,0,1,78.62,185.82Z"/><path d="M202.81,45.21a2.48,2.48,0,0,1-2,2.76,2.45,2.45,0,0,1-2.65-2.11,2.49,2.49,0,0,1,1.94-2.66A2.43,2.43,0,0,1,202.81,45.21Z"/><path d="M213.86,53.08a2.48,2.48,0,0,1-2,2.78,2.44,2.44,0,0,1-2.67-2.09,2.49,2.49,0,0,1,1.92-2.68A2.42,2.42,0,0,1,213.86,53.08Z"/><path d="M61.52,131.48a2.49,2.49,0,0,1-1.92,2.83,2.44,2.44,0,0,1-2.72-2,2.5,2.5,0,0,1,1.85-2.73A2.44,2.44,0,0,1,61.52,131.48Z"/><path d="M123.3,217.65a2.44,2.44,0,0,1,2.67,2.08,2.48,2.48,0,0,1-2.08,2.71,2.45,2.45,0,0,1-2.57-2A2.48,2.48,0,0,1,123.3,217.65Z"/><path d="M235.93,179.5a2.46,2.46,0,0,1-1.87,2.72,2.42,2.42,0,0,1-2.69-1.88,2.48,2.48,0,0,1,1.95-2.82A2.43,2.43,0,0,1,235.93,179.5Z"/><path d="M224.91,61.33a2.46,2.46,0,0,1-1.86,2.7,2.42,2.42,0,0,1-2.69-2,2.46,2.46,0,0,1,2-2.63A2.41,2.41,0,0,1,224.91,61.33Z"/><path d="M153.06,222.43a2.45,2.45,0,0,1,2.74,2,2.49,2.49,0,0,1-2,2.77,2.44,2.44,0,0,1-2.64-1.93A2.5,2.5,0,0,1,153.06,222.43Z"/><path d="M228.24,190.79a2.48,2.48,0,0,1-1.8,2.77,2.44,2.44,0,0,1-2.77-2,2.47,2.47,0,0,1,1.91-2.7A2.42,2.42,0,0,1,228.24,190.79Z"/><path d="M66.58,160.44a2.5,2.5,0,0,1-2,2.74A2.45,2.45,0,0,1,61.92,161a2.48,2.48,0,0,1,1.95-2.63A2.45,2.45,0,0,1,66.58,160.44Z"/><path d="M193.89,217.43a2.48,2.48,0,0,1-1.91,2.7,2.44,2.44,0,0,1-2.69-2.08,2.49,2.49,0,0,1,2-2.63A2.44,2.44,0,0,1,193.89,217.43Z"/><path d="M189,35.39a2.36,2.36,0,0,1,2.68,1.84A2.41,2.41,0,0,1,189.89,40a2.35,2.35,0,0,1-2.68-1.84A2.41,2.41,0,0,1,189,35.39Z"/><path d="M143.75,224.25a2.33,2.33,0,0,1,2.59,1.92,2.38,2.38,0,0,1-1.87,2.67,2.34,2.34,0,0,1-2.6-1.93A2.39,2.39,0,0,1,143.75,224.25Z"/><path d="M65.78,168.46a2.29,2.29,0,1,1-2,2.55A2.33,2.33,0,0,1,65.78,168.46Z"/><path d="M249.81,146.74a2.35,2.35,0,0,1-1.83,2.7,2.32,2.32,0,0,1-2.57-1.76,2.38,2.38,0,0,1,1.73-2.78A2.3,2.3,0,0,1,249.81,146.74Z"/><path d="M168.16,29a2.32,2.32,0,0,1,2.69,1.82,2.37,2.37,0,0,1-1.65,2.69,2.3,2.3,0,0,1-2.76-1.71A2.39,2.39,0,0,1,168.16,29Z"/><path d="M57.9,124.25a2.33,2.33,0,0,1-2.66-1.83A2.39,2.39,0,0,1,57,119.69a2.33,2.33,0,0,1,2.66,1.82A2.39,2.39,0,0,1,57.9,124.25Z"/><path d="M79.66,67.92a2.38,2.38,0,0,1-1.88,2.67,2.34,2.34,0,0,1-2.61-1.93A2.39,2.39,0,0,1,77.06,66,2.34,2.34,0,0,1,79.66,67.92Z"/><path d="M72,79.26a2.36,2.36,0,0,1-1.9,2.67,2.34,2.34,0,0,1-2.57-2,2.38,2.38,0,0,1,1.84-2.57A2.32,2.32,0,0,1,72,79.26Z"/><path d="M243.5,168.05a2.32,2.32,0,0,1-1.62,2.69,2.25,2.25,0,0,1-2.73-1.72,2.32,2.32,0,0,1,1.63-2.69A2.24,2.24,0,0,1,243.5,168.05Z"/><path d="M237.94,78.69a2.4,2.4,0,0,1-1.79,2.75,2.35,2.35,0,0,1-2.68-1.84,2.42,2.42,0,0,1,1.79-2.75A2.35,2.35,0,0,1,237.94,78.69Z"/><path d="M200.65,213.91a2,2,0,0,1,2.4,1.83,2.07,2.07,0,0,1-1.78,2.46,2,2,0,0,1-2.4-1.83A2.07,2.07,0,0,1,200.65,213.91Z"/><path d="M220,202.17a2.1,2.1,0,0,1-1.59,2.6,2.07,2.07,0,0,1-2.61-1.75,2.11,2.11,0,0,1,1.69-2.54A2.06,2.06,0,0,1,220,202.17Z"/><path d="M105,213.61a2.1,2.1,0,0,1-1.76,2.49,2.07,2.07,0,0,1-2.49-1.92,2.11,2.11,0,0,1,1.85-2.42A2.07,2.07,0,0,1,105,213.61Z"/><path d="M104.52,43a2.12,2.12,0,0,1-1.64,2.58A2.2,2.2,0,1,1,104.52,43Z"/><path d="M94,205.73a2.09,2.09,0,0,1-1.77,2.48A2.19,2.19,0,1,1,94,205.73Z"/><path d="M84.79,54.78a2,2,0,0,1,2.42,1.84,2.09,2.09,0,0,1-1.8,2.48A2,2,0,0,1,83,57.26,2.08,2.08,0,0,1,84.79,54.78Z"/><path d="M250.59,108.68a2,2,0,0,1-2.41-1.6,2.07,2.07,0,0,1,1.67-2.54,2,2,0,0,1,2.34,1.7A2.06,2.06,0,0,1,250.59,108.68Z"/><path d="M136.78,227.86a2.08,2.08,0,0,1-1.72,2.52,2,2,0,0,1-2.35-1.7,2.07,2.07,0,0,1,1.72-2.51A2,2,0,0,1,136.78,227.86Z"/><path d="M61.68,88.86a2,2,0,0,1,2.44,1.78,2.07,2.07,0,0,1-1.77,2.47A2,2,0,0,1,60,91.41,2.09,2.09,0,0,1,61.68,88.86Z"/><path d="M82.81,197.7a2.08,2.08,0,0,1-1.53,2.51,2,2,0,0,1-2.51-1.69,2.07,2.07,0,0,1,1.63-2.44A2,2,0,0,1,82.81,197.7Z"/><path d="M251.49,114.17a2,2,0,0,1,2.37,1.64,2.09,2.09,0,0,1-1.71,2.51,2,2,0,0,1-2.31-1.74A2.09,2.09,0,0,1,251.49,114.17Z"/><path d="M180,29.15a2.07,2.07,0,0,1-1.61,2.42A2,2,0,0,1,176,29.79a2.06,2.06,0,0,1,1.71-2.35A2,2,0,0,1,180,29.15Z"/><path d="M234.4,71.6A2,2,0,0,1,232,70a2.08,2.08,0,0,1,1.72-2.52,2,2,0,0,1,2.32,1.75A2.05,2.05,0,0,1,234.4,71.6Z"/><path d="M113.59,219.73a2,2,0,0,1,2.38,1.66,2.09,2.09,0,0,1-1.69,2.54,2,2,0,0,1-2.37-1.66A2.07,2.07,0,0,1,113.59,219.73Z"/><path d="M67.28,178.29a2,2,0,0,1,2.41,1.62,2.07,2.07,0,0,1-1.7,2.54,2,2,0,0,1-2.34-1.72A2.07,2.07,0,0,1,67.28,178.29Z"/><path d="M56.1,114.46a2,2,0,0,1-2.36-1.7,2.07,2.07,0,0,1,1.72-2.52,2,2,0,0,1,2.36,1.7A2.08,2.08,0,0,1,56.1,114.46Z"/><path d="M149.87,24.77a2.13,2.13,0,0,1-1.7,2.41,2.09,2.09,0,0,1-2.25-1.67,2,2,0,1,1,4-.74Z"/><path d="M255.59,125.9a2.14,2.14,0,0,1-1.74,2.35,2.07,2.07,0,0,1-.58-4.09A2.07,2.07,0,0,1,255.59,125.9Z"/><path d="M211.86,43.53a2.09,2.09,0,0,1-1.74,2.38,2.06,2.06,0,0,1-2.28-1.83,2.09,2.09,0,0,1,1.66-2.28A2.05,2.05,0,0,1,211.86,43.53Z"/><path d="M138.88,28.92a2,2,0,0,1-2.35-1.73,2,2,0,1,1,2.35,1.73Z"/><path d="M128.83,26.54a2.05,2.05,0,0,1,2.34,1.75,2.09,2.09,0,0,1-1.75,2.37A2.06,2.06,0,0,1,127.17,29,2.11,2.11,0,0,1,128.83,26.54Z"/><path d="M120.23,32.32a2.09,2.09,0,0,1-2.36-1.47,2.14,2.14,0,0,1,1.5-2.52A2.07,2.07,0,0,1,121.76,30,2.15,2.15,0,0,1,120.23,32.32Z"/><path d="M237.3,189.2a2.14,2.14,0,0,1-1.64,2.31,2.1,2.1,0,0,1-2.31-1.8,2.15,2.15,0,0,1,1.73-2.24A2.12,2.12,0,0,1,237.3,189.2Z"/><path d="M222.87,51.38a2.14,2.14,0,0,1-1.71,2.4,2.09,2.09,0,0,1-2.23-1.69,2.12,2.12,0,0,1,1.71-2.39A2.09,2.09,0,0,1,222.87,51.38Z"/><path d="M198.46,33.94a2.1,2.1,0,0,1,2.29,1.58,2.13,2.13,0,0,1-1.6,2.45,2.09,2.09,0,0,1-2.32-1.74A2.16,2.16,0,0,1,198.46,33.94Z"/><path d="M176.16,230.61a2.12,2.12,0,0,1-1.64,2.3,2.09,2.09,0,0,1-2.24-1.68,2.12,2.12,0,0,1,1.63-2.3A2.08,2.08,0,0,1,176.16,230.61Z"/><path d="M166.78,232.25a2.13,2.13,0,0,1-1.54,2.37,2.08,2.08,0,0,1-2.31-1.58,2.12,2.12,0,0,1,1.54-2.37A2.08,2.08,0,0,1,166.78,232.25Z"/><path d="M212.27,213.89a2.16,2.16,0,0,1-1.44,2.42,2.08,2.08,0,0,1-2.45-1.55,2.13,2.13,0,0,1,1.6-2.45A2.09,2.09,0,0,1,212.27,213.89Z"/><path d="M249.68,158.83a2.05,2.05,0,0,1-2.39-1.69,2.1,2.1,0,0,1,1.69-2.42,2.07,2.07,0,0,1,2.29,1.62A2.11,2.11,0,0,1,249.68,158.83Z"/><path d="M250.49,96.67a2.09,2.09,0,0,1-1.71,2.39,2.07,2.07,0,0,1-2.3-1.81A2.1,2.1,0,0,1,248.13,95,2.05,2.05,0,0,1,250.49,96.67Z"/><path d="M93.33,47.23a2.09,2.09,0,0,1-2.27-1.84,2,2,0,1,1,2.27,1.84Z"/><path d="M52.8,151a2.05,2.05,0,0,1,2.29,1.56,2.1,2.1,0,0,1-1.4,2.28,2,2,0,0,1-2.36-1.45A2.13,2.13,0,0,1,52.8,151Z"/><path d="M248.67,86.71a1.95,1.95,0,1,1-3.85.57,2.16,2.16,0,0,1,1.57-2.2A2.07,2.07,0,0,1,248.67,86.71Z"/><path d="M68.4,72a2.06,2.06,0,0,1-2.25-1.64A1.93,1.93,0,1,1,68.4,72Z"/><path d="M227.24,198.92a2,2,0,0,1,2.29,1.55,2.1,2.1,0,0,1-1.4,2.28,2,2,0,0,1-2.35-1.45A2.1,2.1,0,0,1,227.24,198.92Z"/><path d="M255.64,137.76a2,2,0,0,1-2.25-1.62,2.14,2.14,0,0,1,1.45-2.25,2,2,0,0,1,2.32,1.52A2.09,2.09,0,0,1,255.64,137.76Z"/><path d="M127.28,229.71a2.09,2.09,0,0,1-1.66,2.25,2.05,2.05,0,0,1-2.15-1.76,2.09,2.09,0,0,1,1.59-2.14A2,2,0,0,1,127.28,229.71Z"/><path d="M185.47,228.88a2.07,2.07,0,0,1-1.67,2.26,2,2,0,1,1,1.67-2.26Z"/><path d="M155.51,236.34a2,2,0,0,1-2.19-1.46,2,2,0,0,1,1.48-2.35A2,2,0,0,1,157,234,2,2,0,0,1,155.51,236.34Z"/><path d="M51.21,141.33A2.06,2.06,0,0,1,53.42,143a1.92,1.92,0,1,1-2.21-1.66Z"/><path d="M71.22,189.64a1.9,1.9,0,1,1-2.11-1.59A2,2,0,0,1,71.22,189.64Z"/><path d="M244.92,177.78a2.12,2.12,0,0,1-1.59,2.34,2.08,2.08,0,0,1-2.24-1.68,2.16,2.16,0,0,1,1.51-2.24A2.08,2.08,0,0,1,244.92,177.78Z"/><path d="M53.69,100.78A2.08,2.08,0,0,1,56,102.36a2.15,2.15,0,0,1-1.42,2.3,2.09,2.09,0,0,1-2.39-1.47A2.16,2.16,0,0,1,53.69,100.78Z"/><path d="M157.87,25.3a2.06,2.06,0,0,1-2.19-1.7,1.93,1.93,0,1,1,2.19,1.7Z"/><path d="M77.6,58.41a2,2,0,0,1-1.69,2.18,2,2,0,0,1-2-1.66,1.88,1.88,0,1,1,3.73-.52Z"/><path d="M246.81,77.24a1.72,1.72,0,0,1-1.65,2,1.69,1.69,0,0,1-1.83-1.61,1.71,1.71,0,0,1,1.65-2A1.69,1.69,0,0,1,246.81,77.24Z"/><path d="M252.76,166.57a1.71,1.71,0,0,1-1.65,2,1.68,1.68,0,0,1-1.81-1.61,1.74,1.74,0,1,1,3.46-.35Z"/><path d="M258.67,145.16a1.69,1.69,0,0,1-1.4,2,1.67,1.67,0,0,1-2-1.55,1.7,1.7,0,0,1,1.49-1.94A1.68,1.68,0,0,1,258.67,145.16Z"/><path d="M104.75,225.34a1.79,1.79,0,1,1,1.57-1.87A1.69,1.69,0,0,1,104.75,225.34Z"/><path d="M234.1,59.59A1.79,1.79,0,1,1,232,58.12,1.68,1.68,0,0,1,234.1,59.59Z"/><path d="M82.85,209.53a1.65,1.65,0,0,1-2.09-1.46,1.69,1.69,0,0,1,1.35-2,1.65,1.65,0,0,1,2.09,1.46A1.69,1.69,0,0,1,82.85,209.53Z"/><path d="M62.13,81a1.76,1.76,0,0,1-1.4,2.18,1.71,1.71,0,0,1-2.12-1.44A1.76,1.76,0,0,1,60,79.55,1.72,1.72,0,0,1,62.13,81Z"/><path d="M188.05,29.5A1.66,1.66,0,0,1,186,28a1.71,1.71,0,0,1,1.48-2.11,1.65,1.65,0,0,1,2,1.39A1.7,1.7,0,0,1,188.05,29.5Z"/><path d="M56.64,162.12a1.75,1.75,0,0,1-1.37,2.19,1.69,1.69,0,0,1-2.13-1.4,1.73,1.73,0,0,1,1.36-2.19A1.7,1.7,0,0,1,56.64,162.12Z"/><path d="M144.07,236.34a1.73,1.73,0,1,1,1.85,1.59A1.68,1.68,0,0,1,144.07,236.34Z"/><path d="M195,227.09a1.68,1.68,0,0,1-1.47,2.09,1.66,1.66,0,0,1-2-1.55,1.68,1.68,0,0,1,1.4-2A1.66,1.66,0,0,1,195,227.09Z"/><path d="M93.26,213.85a1.71,1.71,0,0,1,2,1.54,1.73,1.73,0,0,1-1.5,2.09,1.7,1.7,0,0,1-2-1.54A1.73,1.73,0,0,1,93.26,213.85Z"/><path d="M49.46,131.85a1.72,1.72,0,0,1,2.14,1.42,1.75,1.75,0,0,1-1.38,2.19A1.71,1.71,0,0,1,48.08,134,1.75,1.75,0,0,1,49.46,131.85Z"/><path d="M47.93,121.93a1.67,1.67,0,0,1,1.88,1.55,1.73,1.73,0,1,1-1.88-1.55Z"/><path d="M168.66,21.38a1.73,1.73,0,1,1-3.43.4,1.7,1.7,0,0,1,1.53-1.92A1.67,1.67,0,0,1,168.66,21.38Z"/><path d="M111.88,31.85a1.74,1.74,0,0,1-1.52,2.09,1.71,1.71,0,0,1-2-1.56,1.74,1.74,0,0,1,1.52-2.09A1.71,1.71,0,0,1,111.88,31.85Z"/><path d="M56.26,170.77a1.68,1.68,0,0,1,2,1.33A1.73,1.73,0,0,1,57,174.18a1.68,1.68,0,0,1-2-1.33A1.72,1.72,0,0,1,56.26,170.77Z"/><path d="M221.36,212.25a1.73,1.73,0,0,1-1.33,2.06,1.7,1.7,0,0,1-2-1.37,1.73,1.73,0,0,1,1.33-2.06A1.71,1.71,0,0,1,221.36,212.25Z"/><path d="M85,46.71a1.74,1.74,0,0,1-1.42,2,1.7,1.7,0,0,1-1.94-1.45,1.74,1.74,0,0,1,1.41-2A1.71,1.71,0,0,1,85,46.71Z"/><path d="M102.4,33.57a1.69,1.69,0,1,1-2-1.43A1.71,1.71,0,0,1,102.4,33.57Z"/><path d="M204.29,225.44a1.8,1.8,0,0,1-1.38,1.91A1.77,1.77,0,0,1,201,226a1.67,1.67,0,1,1,3.28-.55Z"/><path d="M52.57,94.47a1.79,1.79,0,0,1-1.88-1.57,1.82,1.82,0,0,1,1.45-1.83A1.78,1.78,0,0,1,54,92.63,1.83,1.83,0,0,1,52.57,94.47Z"/><path d="M115.43,230.12a1.78,1.78,0,0,1,1.87,1.42,1.8,1.8,0,0,1-1.37,1.92,1.78,1.78,0,0,1-1.87-1.42A1.81,1.81,0,0,1,115.43,230.12Z"/><path d="M220.83,41.78a1.81,1.81,0,0,1-1.28,2,1.76,1.76,0,0,1-1.94-1.31,1.81,1.81,0,0,1,1.28-2A1.77,1.77,0,0,1,220.83,41.78Z"/><path d="M209.78,33.89a1.81,1.81,0,0,1-1.28,2,1.76,1.76,0,0,1-1.93-1.31,1.79,1.79,0,0,1,1.27-2A1.76,1.76,0,0,1,209.78,33.89Z"/><path d="M176.65,21.46a1.64,1.64,0,0,1-1.84-1.19,1.69,1.69,0,0,1,1.1-1.92,1.65,1.65,0,0,1,1.94,1.25A1.7,1.7,0,0,1,176.65,21.46Z"/><path d="M138,237.52a1.78,1.78,0,0,1-1.23,2,1.72,1.72,0,0,1-1.86-1.16,1.6,1.6,0,1,1,3.09-.82Z"/><path d="M48,113.78a1.73,1.73,0,0,1-1.31,1.92,1.64,1.64,0,0,1-.59-3.23A1.71,1.71,0,0,1,48,113.78Z"/><path d="M243.13,66.2A1.71,1.71,0,0,1,245,67.62a1.74,1.74,0,0,1-1.32,1.78A1.7,1.7,0,0,1,241.82,68,1.72,1.72,0,0,1,243.13,66.2Z"/><path d="M244.35,186.21a1.64,1.64,0,0,1,1.85,1.17,1.68,1.68,0,0,1-1.09,1.93,1.63,1.63,0,0,1-1.94-1.23A1.67,1.67,0,0,1,244.35,186.21Z"/><path d="M72.69,199.66a1.62,1.62,0,1,1-3.2.48,1.85,1.85,0,0,1,1.29-1.82A1.73,1.73,0,0,1,72.69,199.66Z"/><path d="M59.85,181.85a1.68,1.68,0,0,1-1.26,1.81,1.65,1.65,0,0,1-1.83-1.41,1.68,1.68,0,0,1,1.35-1.74A1.64,1.64,0,0,1,59.85,181.85Z"/><path d="M236.85,198a1.49,1.49,0,1,1-1.21,1.74A1.39,1.39,0,0,1,236.85,198Z"/><path d="M196.79,24.57a1.33,1.33,0,0,1,1.68,1.22,1.35,1.35,0,0,1-1.13,1.63,1.33,1.33,0,0,1-1.68-1.22A1.35,1.35,0,0,1,196.79,24.57Z"/><path d="M261.46,116a1.34,1.34,0,0,1-1.66-1.25,1.37,1.37,0,0,1,1.1-1.64,1.34,1.34,0,0,1,1.73,1.15A1.37,1.37,0,0,1,261.46,116Z"/><path d="M60.09,71.49A1.36,1.36,0,0,1,59,73.16,1.34,1.34,0,0,1,57.29,72a1.37,1.37,0,0,1,1.24-1.7A1.33,1.33,0,0,1,60.09,71.49Z"/><path d="M258.46,153.57a1.49,1.49,0,0,1,.46,3,1.37,1.37,0,0,1-1.71-1.23A1.41,1.41,0,0,1,258.46,153.57Z"/><path d="M67.75,60.06a1.36,1.36,0,0,1-1.13,1.77A1.32,1.32,0,0,1,65,60.73,1.37,1.37,0,0,1,66.13,59,1.31,1.31,0,0,1,67.75,60.06Z"/><path d="M91.18,34.13a1.32,1.32,0,0,1,1.58,1.15A1.37,1.37,0,0,1,91.57,37,1.32,1.32,0,0,1,90,35.86,1.36,1.36,0,0,1,91.18,34.13Z"/><path d="M230.81,51.42a1.48,1.48,0,0,1-.5-2.92A1.35,1.35,0,0,1,232,49.69,1.39,1.39,0,0,1,230.81,51.42Z"/><path d="M261,104.59a1.39,1.39,0,0,1-1.17,1.76,1.36,1.36,0,0,1-1.68-1.24,1.45,1.45,0,0,1,2.85-.52Z"/><path d="M85.15,217.22a1.42,1.42,0,0,1-1,1.58,1.37,1.37,0,0,1-1.63-1.11,1.34,1.34,0,1,1,2.64-.47Z"/><path d="M96.57,225.12A1.37,1.37,0,1,1,95,223.9,1.36,1.36,0,0,1,96.57,225.12Z"/><path d="M72.68,49a1.41,1.41,0,0,1,1.11-1.66,1.38,1.38,0,0,1,1.51,1.08,1.34,1.34,0,1,1-2.62.58Z"/><path d="M166.81,243.58a1.37,1.37,0,0,1-1.55-1,1.32,1.32,0,1,1,2.57-.56A1.41,1.41,0,0,1,166.81,243.58Z"/><path d="M61.29,191.5a1.42,1.42,0,0,1-1,1.54,1.35,1.35,0,1,1,1-1.54Z"/><path d="M46.06,104.25a1.42,1.42,0,0,1-1,1.56,1.37,1.37,0,0,1-1.61-1.15,1.4,1.4,0,0,1,1-1.55A1.38,1.38,0,0,1,46.06,104.25Z"/><path d="M128.86,18.8a1.37,1.37,0,0,1-1.2,1.59,1.33,1.33,0,0,1-1.55-1.23,1.39,1.39,0,1,1,2.75-.36Z"/><path d="M213.38,223.75a1.37,1.37,0,0,1-1.18,1.6,1.34,1.34,0,0,1-1.56-1.21,1.37,1.37,0,0,1,1.18-1.6A1.35,1.35,0,0,1,213.38,223.75Z"/><path d="M255.87,84a1.38,1.38,0,0,1,1.53,1,1.31,1.31,0,1,1-1.53-1Z"/><path d="M229.56,212.19a1.38,1.38,0,0,1-1.52-1.25,1.42,1.42,0,0,1,1.1-1.5,1.38,1.38,0,0,1,1.59,1.15A1.41,1.41,0,0,1,229.56,212.19Z"/><path d="M175.64,239.21a1.35,1.35,0,1,1-1,1.55A1.44,1.44,0,0,1,175.64,239.21Z"/><path d="M257.62,93.87A1.36,1.36,0,0,1,259.23,95a1.39,1.39,0,0,1-1.14,1.65,1.36,1.36,0,0,1-1.6-1.17A1.39,1.39,0,0,1,257.62,93.87Z"/><path d="M252.47,175a1.36,1.36,0,0,1,1.6,1.16,1.38,1.38,0,0,1-1.13,1.64,1.34,1.34,0,0,1-1.59-1.16A1.37,1.37,0,0,1,252.47,175Z"/><path d="M49.38,83.39a1.41,1.41,0,0,1,1-1.56A1.37,1.37,0,0,1,52,83a1.42,1.42,0,0,1-1.12,1.49A1.4,1.4,0,0,1,49.38,83.39Z"/><path d="M126.88,238.27a1.37,1.37,0,0,1,1.49,1.12,1.43,1.43,0,0,1-1,1.57,1.38,1.38,0,0,1-1.59-1.2A1.4,1.4,0,0,1,126.88,238.27Z"/><path d="M138.22,17a1.38,1.38,0,0,1-1.06,1.68,1.34,1.34,0,0,1-1.7-1.21,1.37,1.37,0,0,1,1.16-1.61A1.36,1.36,0,0,1,138.22,17Z"/><path d="M147.55,15.28a1.38,1.38,0,0,1-1.14,1.63,1.36,1.36,0,0,1-1.56-1.23,1.39,1.39,0,0,1,1.08-1.53A1.35,1.35,0,0,1,147.55,15.28Z"/><path d="M119.45,20.44a1.41,1.41,0,0,1-1.11,1.64,1.37,1.37,0,0,1-1.56-1.19,1.39,1.39,0,0,1,1-1.54A1.37,1.37,0,0,1,119.45,20.44Z"/><path d="M264.34,124.28a1.38,1.38,0,0,1-1.18,1.6,1.35,1.35,0,0,1-1.56-1.21,1.38,1.38,0,1,1,2.74-.39Z"/><path d="M185.43,240.1a1.3,1.3,0,1,1,1.08-1.51A1.41,1.41,0,0,1,185.43,240.1Z"/><path d="M265.91,133.82a1.44,1.44,0,0,1-1,1.56,1.38,1.38,0,0,1-1.52-1,1.44,1.44,0,0,1,1-1.57A1.42,1.42,0,0,1,265.91,133.82Z"/><path d="M185.81,16.87a1.25,1.25,0,1,1-1,1.4A1.37,1.37,0,0,1,185.81,16.87Z"/><path d="M156.07,15a1.43,1.43,0,0,1-1.43-1.18,1.42,1.42,0,0,1,1.19-1.42,1.44,1.44,0,0,1,1.33,1.1A1.43,1.43,0,0,1,156.07,15Z"/><path d="M242,59.46a1.39,1.39,0,0,1-1.5-1.06,1.46,1.46,0,0,1,.91-1.48,1.41,1.41,0,0,1,1.57,1A1.43,1.43,0,0,1,242,59.46Z"/><path d="M43.4,144.74a1.27,1.27,0,0,1-2.47.61,1.45,1.45,0,0,1,.93-1.61A1.4,1.4,0,0,1,43.4,144.74Z"/><path d="M42.61,154.93a1.27,1.27,0,1,1,1.57.95A1.4,1.4,0,0,1,42.61,154.93Z"/><path d="M72.57,208.33a1.25,1.25,0,1,1-1,1.41A1.36,1.36,0,0,1,72.57,208.33Z"/><path d="M41.65,135.11a1.34,1.34,0,0,1-.86,1.48,1.24,1.24,0,1,1-.54-2.42A1.29,1.29,0,0,1,41.65,135.11Z"/><path d="M108.27,21.25a1.34,1.34,0,0,1,1.35,1.05,1.31,1.31,0,0,1-1.14,1.44,1.34,1.34,0,0,1-1.28-1.14A1.38,1.38,0,0,1,108.27,21.25Z"/><path d="M106.14,232.28a1.25,1.25,0,1,1,.27,2.49,1.25,1.25,0,0,1-.27-2.49Z"/><path d="M156.66,242.82a1.3,1.3,0,0,1,1.37,1,1.32,1.32,0,0,1-1.1,1.47,1.25,1.25,0,0,1-.27-2.48Z"/><path d="M207.4,24a1.06,1.06,0,0,1-.71,1.22,1,1,0,0,1-1.25-.85,1,1,0,0,1,.81-1.15A1,1,0,0,1,207.4,24Z"/><path d="M255.48,75.53a1,1,0,0,1-.89,1.24,1,1,0,0,1-1.2-.91,1,1,0,0,1,.88-1.24A1,1,0,0,1,255.48,75.53Z"/><path d="M228.64,39.33a1,1,0,0,1,1.28.9,1,1,0,0,1-.82,1.12,1,1,0,0,1-1.19-.92A1,1,0,0,1,228.64,39.33Z"/><path d="M39.73,125.17a1,1,0,0,1-.79,1.29,1,1,0,0,1-1.22-.87,1,1,0,0,1,2-.42Z"/><path d="M221.11,221.17a1,1,0,0,1,1.28.78,1,1,0,0,1-.76,1.31,1,1,0,0,1-1.28-.78A1,1,0,0,1,221.11,221.17Z"/><path d="M44,94.36a1,1,0,0,1-.82,1.14A1,1,0,0,1,42,94.72a1,1,0,0,1,.88-1.24A1,1,0,0,1,44,94.36Z"/><path d="M46.59,164a1.08,1.08,0,0,1-.89,1.38,1,1,0,0,1-1.25-.86,1.09,1.09,0,0,1,.9-1.38A1,1,0,0,1,46.59,164Z"/><path d="M218.58,32.34a1,1,0,0,1-.88,1.24,1,1,0,0,1-1.21-.91,1,1,0,0,1,.89-1.24A1,1,0,0,1,218.58,32.34Z"/><path d="M247.41,197.51a1,1,0,0,1-.71,1.21,1,1,0,0,1-1.25-.85,1,1,0,0,1,2-.36Z"/><path d="M48.25,174.05a1,1,0,0,1-.79,1.15,1,1,0,0,1-1.16-.76,1,1,0,1,1,2-.39Z"/><path d="M147.72,246.81a1,1,0,0,1-1.25-.82,1,1,0,0,1,.84-1.25,1,1,0,0,1,1.15.75A1,1,0,0,1,147.72,246.81Z"/><path d="M196,236.8a1,1,0,0,1-.82,1.28,1,1,0,0,1-1.25-.84,1,1,0,0,1,.82-1.29A1,1,0,0,1,196,236.8Z"/><path d="M260.52,166.14a1,1,0,0,1-1.21-.9,1.11,1.11,0,1,1,1.21.9Z"/><path d="M100,24.07a1,1,0,0,1-.79,1.16,1,1,0,0,1-1.16-.76A1,1,0,0,1,99,23.21,1,1,0,0,1,100,24.07Z"/><path d="M165.4,13.05a1,1,0,0,1-1.15-1,1,1,0,0,1,2-.26A1,1,0,0,1,165.4,13.05Z"/><path d="M267.34,143.53a1,1,0,0,1-.88,1.22.94.94,0,0,1-1.12-.78,1,1,0,0,1,.78-1.29A1,1,0,0,1,267.34,143.53Z"/><path d="M81.83,38.43a1,1,0,0,1-1.19-.91,1,1,0,0,1,.88-1.23,1,1,0,0,1,1.19.91A1,1,0,0,1,81.83,38.43Z"/><path d="M60.39,201.8l.89-1.33,1.6.87c-.32.55-.55,1-.86,1.52Z"/><path d="M253,186.17l.93-1.49,1.56,1-.8,1.4Z"/><path d="M238.85,210.44l-1.24-.94c.38-.63.62-1,.92-1.53l1.26.88C239.51,209.31,239.3,209.67,238.85,210.44Z"/><path d="M117.47,242.86l-1.32-1,1-1.61,1.37.95Z"/><path d="M57.12,63.51l-1.27-.94L56.68,61l1.48.89Z"/><path d="M204.51,236.71l-1.45-1c.45-.72.7-1.12,1-1.6l1.36.82Z"/><path d="M74.64,220.17c-.41-.4-.73-.58-.82-.84a.57.57,0,0,1,.58-.82c.25,0,.67.31.69.52S74.86,219.66,74.64,220.17Z"/><path d="M37.07,115c.18.14.56.3.69.58a.77.77,0,1,1-1.44.52C36.17,115.57,36.35,115.2,37.07,115Z"/><path d="M269,153.15c-.39.39-.6.76-.88.83s-.62-.25-.71-.49a.57.57,0,0,1,.54-.84C268.19,152.65,268.46,152.89,269,153.15Z"/><path d="M241,48.05c-.41.42-.6.76-.89.89-.44.19-.86-.17-.89-.68s.23-.8.66-.77S240.48,47.78,241,48.05Z"/><path d="M261.9,173.65c.38.4.74.61.81.9a.94.94,0,0,1-.47.74.56.56,0,0,1-.82-.56C261.41,174.45,261.65,174.17,261.9,173.65Z"/><path d="M50,73.39c-.42.41-.62.75-.91.86-.45.18-.86-.19-.87-.7s.25-.79.68-.75S49.52,73.1,50,73.39Z"/><path d="M65.44,50.45c-.13.18-.29.58-.56.71-.46.22-.86,0-1-.54a.71.71,0,0,1,.49-.93C64.86,49.53,65.22,49.72,65.44,50.45Z"/><path d="M86.55,226.93c-.42.41-.62.75-.91.86-.45.18-.86-.19-.87-.7s.25-.79.68-.75S86,226.64,86.55,226.93Z"/><path d="M89.52,25c.37.39.73.61.8.89s-.24.63-.47.73A.56.56,0,0,1,89,26C89,25.77,89.28,25.49,89.52,25Z"/><path d="M195.65,17.43c-.46-.39-.81-.55-1-.83a.65.65,0,0,1,.42-.94.66.66,0,0,1,1,.57A4.18,4.18,0,0,1,195.65,17.43Z"/><path d="M174.55,9.2c.38.45.7.68.8,1a.69.69,0,0,1-.73.87.65.65,0,0,1-.7-.75C174,10,174.24,9.71,174.55,9.2Z"/><path d="M252.53,65c.44.4.78.58.91.86a.64.64,0,0,1-.45.92.67.67,0,0,1-.94-.61A4,4,0,0,1,252.53,65Z"/><path d="M49.06,184.9c-.39-.45-.71-.67-.82-1a.69.69,0,0,1,.71-.89.64.64,0,0,1,.71.73C49.63,184.09,49.35,184.38,49.06,184.9Z"/><path d="M97.92,235.1c-.41.38-.63.74-.91.8s-.61-.27-.7-.51a.56.56,0,0,1,.57-.82C97.15,234.57,97.42,234.83,97.92,235.1Z"/><path d="M139.16,247.42c-.45.39-.66.71-1,.82a.68.68,0,0,1-.84-.75c0-.47.3-.78.72-.72S138.66,247.1,139.16,247.42Z"/><path d="M72.11,38.25c.35.29.74.46.78.68s-.27.53-.42.79c-.26-.16-.66-.26-.74-.49S71.93,38.68,72.11,38.25Z"/><path d="M231.83,220.33c-.25.33-.4.55-.57.78-.63-.1-1.06-.37-.71-1S231.35,219.79,231.83,220.33Z"/><path d="M214.41,233.51l-.8.68c-.54-.19-.77-.54-.39-1S214,232.89,214.41,233.51Z"/><path d="M271,112.05c.09.39.18.78.36,1.6-.57-.4-1-.55-1-.77s.24-.59.38-.89Z"/><path d="M269.28,102c.15.85.22,1.26.35,2-.5-.39-.93-.55-1-.79S268.93,102.65,269.28,102Z"/><path d="M134.23,7.2l1.53-.28-.42,1.14Z"/><path d="M41.35,84.24c.81.6.46.91.06,1.26C40.68,85.08,41.41,84.73,41.35,84.24Z"/><path d="M35.65,105.71c.53.46.18.75-.26,1.27,0-.54,0-.86,0-1.18Z"/><path d="M125.19,9.2l1.08-.2C126.07,9.61,125.8,9.79,125.19,9.2Z"/><path d="M199.68,217c-14.39,0-29.43-5.29-42.57-14.93a34.57,34.57,0,0,1-4.44,4.45,35,35,0,0,1-22.76,8c-14.55,0-29.47-7.88-39.9-21.09A62.29,62.29,0,0,1,84.39,185a51.16,51.16,0,0,1-8.67.74c-24.06,0-43.63-16.68-43.63-37.17a34.08,34.08,0,0,1,10.06-23.78,44.19,44.19,0,0,1,17.12-10.66A58,58,0,0,1,56.88,97.6c0-27.8,19.57-50.41,43.63-50.41a38.15,38.15,0,0,1,13.58,2.48C124.75,32.75,147,21.73,171.4,21.73c16.76,0,32.59,5,44.56,14.18,12.5,9.55,19.39,22.41,19.39,36.23a41,41,0,0,1-.82,8.12c10.47,2.44,19.65,6.54,26.82,12C270.8,99.51,276,108.81,276,118.47c0,9.17-4.48,17.76-13,24.85a65.55,65.55,0,0,1-23,11.89c6,16.53,4.55,33-4.32,45-8,10.82-20.76,16.77-36,16.77Z"/><path class="cls-1" d="M272.43,117.15c0-15.54-17.61-28.6-41.5-32.4a33.78,33.78,0,0,0,2.39-12.44c0-23.67-25-42.87-55.8-42.87-24.38,0-45.11,12-52.71,28.75a31.57,31.57,0,0,0-15.5-4.11c-20,0-36.25,19.19-36.25,42.86a49.06,49.06,0,0,0,4.19,20c-16.06,3.08-28,15-28,29.27,0,16.59,16.22,30.05,36.24,30.05a43,43,0,0,0,11.43-1.53A53.73,53.73,0,0,0,103.66,186c14.53,18.5,37.92,23.79,52.23,11.8a28.09,28.09,0,0,0,6.63-8.18c.95.81,1.91,1.61,2.91,2.38,24.59,19.2,55.66,19.53,69.4.74,8.68-11.87,8.37-28.53.76-44C257.07,144,272.43,131.65,272.43,117.15Z"/><polygon points="128.27 41.2 124.91 0 131.56 36.49 128.27 41.2"/><polygon points="135.88 33.97 132.01 8.06 134.27 34.11 135.88 33.97"/><polygon points="85.67 53.42 59.72 31.24 82.99 57.26 85.67 53.42"/><polygon points="76.53 57.26 63.26 42.42 75.73 59.34 76.53 57.26"/><polygon points="211.22 210.84 221.31 247.66 215.05 210.76 211.22 210.84"/><polygon points="208.86 210.22 208.29 235.94 205.99 210.12 208.86 210.22"/><text class="cls-2" transform="translate(27.64 138.08)">DUMDUM</text><text class="cls-3" transform="translate(24.96 132.32)">DUMDUM</text></svg>